# Blender v2.80 (sub 39) OBJ File: 'bomb.blend'
# www.blender.org
mtllib bomb.mtl
o Circle
v 0.000000 0.279646 -0.000000
v -0.197740 0.197740 -0.000000
v -0.279646 -0.000000 -0.000000
v -0.197740 -0.197740 -0.000000
v 0.000000 -0.279646 -0.000000
v 0.197740 -0.197740 -0.000000
v 0.279646 0.000000 -0.000000
v 0.197740 0.197740 -0.000000
v 0.000000 0.213630 0.464555
v -0.151059 0.151059 0.464555
v -0.213630 -0.000000 0.464555
v -0.151059 -0.151059 0.464555
v 0.000000 -0.213630 0.464555
v 0.151059 -0.151059 0.464555
v 0.213630 0.000000 0.464555
v 0.151059 0.151059 0.464555
v 0.000000 -0.000000 0.894116
v 0.279646 0.000000 -0.525225
v 0.197740 -0.197740 -0.525225
v 0.000000 -0.279646 -0.525225
v -0.197740 -0.197740 -0.525225
v -0.279646 -0.000000 -0.525225
v -0.197740 0.197740 -0.525225
v 0.000000 0.279646 -0.525225
v 0.197740 0.197740 -0.525225
v 0.105687 0.000000 -1.062267
v 0.074732 -0.074732 -1.062267
v 0.000000 -0.105686 -1.062267
v -0.074732 -0.074732 -1.062267
v -0.105686 -0.000000 -1.062267
v -0.074732 0.074732 -1.062267
v 0.000000 0.105686 -1.062267
v 0.074732 0.074732 -1.062267
v 0.025995 0.090616 -0.766021
v 0.025995 0.181811 -0.766021
v 0.025995 0.090616 -1.041925
v 0.025995 0.396109 -1.041925
v -0.025995 0.090616 -0.766021
v -0.025995 0.181811 -0.766021
v -0.025995 0.090616 -1.041925
v -0.025995 0.396109 -1.041925
v 0.025995 -0.090616 -0.766021
v 0.025995 -0.181811 -0.766021
v 0.025995 -0.090616 -1.041925
v 0.025995 -0.396109 -1.041925
v -0.025995 -0.090616 -0.766021
v -0.025995 -0.181811 -0.766021
v -0.025995 -0.090616 -1.041925
v -0.025995 -0.396109 -1.041925
v -0.090616 -0.025995 -0.766021
v -0.181811 -0.025995 -0.766021
v -0.090616 -0.025995 -1.041925
v -0.396109 -0.025995 -1.041925
v -0.090616 0.025995 -0.766021
v -0.181811 0.025995 -0.766021
v -0.090616 0.025995 -1.041925
v -0.396109 0.025995 -1.041925
v 0.090616 -0.025995 -0.766021
v 0.181811 -0.025995 -0.766021
v 0.090616 -0.025995 -1.041925
v 0.396109 -0.025995 -1.041925
v 0.090616 0.025995 -0.766021
v 0.181811 0.025995 -0.766021
v 0.090616 0.025995 -1.041925
v 0.396109 0.025995 -1.041925
vt 0.000000 0.000000
vt 0.000000 0.000000
vt 0.000000 0.000000
vt 0.000000 0.000000
vt 0.000000 0.000000
vt 0.000000 0.000000
vt 0.000000 0.000000
vt 0.000000 0.000000
vt 0.000000 0.000000
vt 0.000000 0.000000
vt 0.000000 0.000000
vt 0.000000 0.000000
vt 0.000000 0.000000
vt 0.000000 0.000000
vt 0.000000 0.000000
vt 0.000000 0.000000
vt 0.000000 0.000000
vt 0.000000 0.000000
vt 0.000000 0.000000
vt 0.000000 0.000000
vt 0.000000 0.000000
vt 0.000000 0.000000
vt 0.000000 0.000000
vt 0.000000 0.000000
vt 0.000000 0.000000
vt 0.000000 0.000000
vt 0.000000 0.000000
vt 0.000000 0.000000
vt 0.000000 0.000000
vt 0.000000 0.000000
vt 0.000000 0.000000
vt 0.000000 0.000000
vt 0.000000 0.000000
vt 0.375000 0.250000
vt 0.625000 0.000000
vt 0.375000 0.000000
vt 0.375000 0.500000
vt 0.625000 0.250000
vt 0.625000 0.750000
vt 0.625000 0.500000
vt 0.375000 1.000000
vt 0.375000 0.750000
vt 0.625000 0.000000
vt 0.375000 0.250000
vt 0.375000 0.000000
vt 0.875000 0.500000
vt 0.625000 0.250000
vt 0.375000 0.500000
vt 0.625000 0.750000
vt 0.375000 0.750000
vt 0.375000 1.000000
vt 0.875000 0.500000
vt 0.625000 0.500000
vt 0.625000 0.000000
vt 0.375000 0.250000
vt 0.375000 0.000000
vt 0.625000 0.250000
vt 0.375000 0.500000
vt 0.625000 0.750000
vt 0.375000 0.750000
vt 0.375000 1.000000
vt 0.875000 0.500000
vt 0.625000 0.500000
vt 0.375000 0.250000
vt 0.625000 0.000000
vt 0.375000 0.000000
vt 0.375000 0.500000
vt 0.625000 0.250000
vt 0.625000 0.750000
vt 0.625000 0.500000
vt 0.375000 1.000000
vt 0.375000 0.750000
vt 0.875000 0.500000
vt 0.625000 1.000000
vt 0.875000 0.750000
vt 0.625000 1.000000
vt 0.875000 0.750000
vt 0.625000 1.000000
vt 0.875000 0.750000
vt 0.625000 1.000000
vt 0.875000 0.750000
vn -0.9160 -0.3794 0.1302
vn -0.3794 0.9160 0.1302
vn 0.3794 0.9160 0.1302
vn 0.9160 -0.3794 0.1302
vn -0.3794 -0.9160 0.1302
vn -0.9160 0.3794 0.1302
vn 0.9160 0.3794 0.1302
vn 0.3794 -0.9160 0.1302
vn 0.8395 -0.3477 0.4175
vn -0.3477 -0.8395 0.4175
vn -0.8395 0.3477 0.4175
vn 0.8395 0.3477 0.4175
vn 0.3477 -0.8395 0.4175
vn -0.8395 -0.3477 0.4175
vn -0.3477 0.8395 0.4175
vn 0.3477 0.8395 0.4175
vn -0.9239 -0.3827 0.0000
vn -0.3827 0.9239 0.0000
vn 0.3827 0.9239 0.0000
vn 0.9239 -0.3827 0.0000
vn -0.3827 -0.9239 0.0000
vn -0.9239 0.3827 0.0000
vn 0.9239 0.3827 0.0000
vn 0.3827 -0.9239 0.0000
vn -0.3666 -0.8851 -0.2867
vn 0.8851 -0.3666 -0.2867
vn 0.3666 0.8851 -0.2867
vn -0.3666 0.8851 -0.2867
vn -0.8851 -0.3666 -0.2867
vn 0.3666 -0.8851 -0.2867
vn 0.8851 0.3666 -0.2867
vn -0.8851 0.3666 -0.2867
vn 0.0000 0.0000 -1.0000
vn 1.0000 0.0000 0.0000
vn -1.0000 0.0000 0.0000
vn 0.0000 0.0000 1.0000
vn 0.0000 0.7898 0.6134
vn 0.0000 -0.7898 0.6134
vn 0.0000 -1.0000 0.0000
vn 0.0000 1.0000 0.0000
vn -0.7898 0.0000 0.6134
vn 0.7898 0.0000 0.6134
usemtl Bomb
s off
f 12/1/1 3/2/1 4/3/1
f 10/4/2 1/5/2 2/6/2
f 1/5/3 16/7/3 8/8/3
f 7/9/4 14/10/4 6/11/4
f 5/12/5 12/1/5 4/3/5
f 11/13/6 2/6/6 3/2/6
f 16/7/7 7/9/7 8/8/7
f 14/10/8 5/12/8 6/11/8
f 15/14/9 17/15/9 14/10/9
f 13/16/10 17/15/10 12/1/10
f 11/13/11 17/15/11 10/4/11
f 16/7/12 17/15/12 15/14/12
f 14/10/13 17/15/13 13/16/13
f 12/1/14 17/15/14 11/13/14
f 10/4/15 17/15/15 9/17/15
f 9/17/16 17/15/16 16/7/16
f 22/18/17 4/3/17 3/2/17
f 24/19/18 2/6/18 1/5/18
f 25/20/19 1/5/19 8/8/19
f 19/21/20 7/9/20 6/11/20
f 21/22/21 5/12/21 4/3/21
f 23/23/22 3/2/22 2/6/22
f 18/24/23 8/8/23 7/9/23
f 20/25/24 6/11/24 5/12/24
f 29/26/25 20/25/25 21/22/25
f 27/27/26 18/24/26 19/21/26
f 33/28/27 24/19/27 25/20/27
f 32/29/28 23/23/28 24/19/28
f 22/18/29 29/26/29 21/22/29
f 28/30/30 19/21/30 20/25/30
f 26/31/31 25/20/31 18/24/31
f 23/23/32 30/32/32 22/18/32
f 27/27/33 29/26/33 31/33/33
f 36/34/34 35/35/34 34/36/34
f 40/37/33 37/38/33 36/34/33
f 40/37/35 39/39/35 41/40/35
f 34/41/36 39/39/36 38/42/36
f 43/43/34 44/44/34 42/45/34
f 39/39/37 37/46/37 41/40/37
f 45/47/33 48/48/33 44/44/33
f 48/48/35 47/49/35 46/50/35
f 47/49/36 42/51/36 46/50/36
f 45/52/38 47/49/38 49/53/38
f 51/54/39 52/55/39 50/56/39
f 53/57/33 56/58/33 52/55/33
f 56/58/40 55/59/40 54/60/40
f 55/59/36 50/61/36 54/60/36
f 53/62/41 55/59/41 57/63/41
f 60/64/39 59/65/39 58/66/39
f 64/67/33 61/68/33 60/64/33
f 64/67/40 63/69/40 65/70/40
f 58/71/36 63/69/36 62/72/36
f 63/69/42 61/73/42 65/70/42
f 12/1/1 11/13/1 3/2/1
f 10/4/2 9/17/2 1/5/2
f 1/5/3 9/17/3 16/7/3
f 7/9/4 15/14/4 14/10/4
f 5/12/5 13/16/5 12/1/5
f 11/13/6 10/4/6 2/6/6
f 16/7/7 15/14/7 7/9/7
f 14/10/8 13/16/8 5/12/8
f 22/18/17 21/22/17 4/3/17
f 24/19/18 23/23/18 2/6/18
f 25/20/19 24/19/19 1/5/19
f 19/21/20 18/24/20 7/9/20
f 21/22/21 20/25/21 5/12/21
f 23/23/22 22/18/22 3/2/22
f 18/24/23 25/20/23 8/8/23
f 20/25/24 19/21/24 6/11/24
f 29/26/25 28/30/25 20/25/25
f 27/27/26 26/31/26 18/24/26
f 33/28/27 32/29/27 24/19/27
f 32/29/28 31/33/28 23/23/28
f 22/18/29 30/32/29 29/26/29
f 28/30/30 27/27/30 19/21/30
f 26/31/31 33/28/31 25/20/31
f 23/23/32 31/33/32 30/32/32
f 31/33/33 32/29/33 33/28/33
f 33/28/33 26/31/33 27/27/33
f 27/27/33 28/30/33 29/26/33
f 29/26/33 30/32/33 31/33/33
f 31/33/33 33/28/33 27/27/33
f 36/34/34 37/38/34 35/35/34
f 40/37/33 41/40/33 37/38/33
f 40/37/35 38/42/35 39/39/35
f 34/41/36 35/74/36 39/39/36
f 43/43/34 45/47/34 44/44/34
f 39/39/37 35/75/37 37/46/37
f 45/47/33 49/53/33 48/48/33
f 48/48/35 49/53/35 47/49/35
f 47/49/36 43/76/36 42/51/36
f 45/52/38 43/77/38 47/49/38
f 51/54/39 53/57/39 52/55/39
f 53/57/33 57/63/33 56/58/33
f 56/58/40 57/63/40 55/59/40
f 55/59/36 51/78/36 50/61/36
f 53/62/41 51/79/41 55/59/41
f 60/64/39 61/68/39 59/65/39
f 64/67/33 65/70/33 61/68/33
f 64/67/40 62/72/40 63/69/40
f 58/71/36 59/80/36 63/69/36
f 63/69/42 59/81/42 61/73/42
