# Blender v2.80 (sub 57) OBJ File: 'Concrete10m.blend'
# www.blender.org
mtllib Conrete10m.mtl
o Road_End_RoadEnd
v -5.000000 0.200000 -5.000000
v -5.000000 -0.300000 -5.000000
v -5.000000 0.200000 5.000000
v -5.000000 -0.300000 5.000000
v 5.000000 -0.300000 5.000000
v 5.000000 0.200000 5.000000
v 5.000000 -0.300000 -5.000000
v 5.000000 0.200000 -5.000000
vt 0.625000 0.000000
vt 0.375000 0.250000
vt 0.375000 0.000000
vt 0.625000 0.250000
vt 0.375000 0.500000
vt 0.375000 0.250000
vt 0.625000 0.750000
vt 0.375000 1.000000
vt 0.375000 0.750000
vt 0.375000 0.500000
vt 0.125000 0.750000
vt 0.125000 0.500000
vt 0.875000 0.500000
vt 0.625000 0.750000
vt 0.625000 0.500000
vt 0.625000 0.250000
vt 0.625000 0.500000
vt 0.625000 1.000000
vt 0.375000 0.750000
vt 0.875000 0.750000
vn 0.0000 0.0000 -1.0000
vn -1.0000 0.0000 0.0000
vn 1.0000 0.0000 0.0000
vn 0.0000 0.0000 1.0000
vn 0.0000 1.0000 0.0000
usemtl Concrete
s off
f 1/1/1 7/2/1 2/3/1
f 3/4/2 2/5/2 4/6/2
f 8/7/3 5/8/3 7/9/3
f 6/10/4 4/11/4 5/12/4
f 1/13/5 6/14/5 8/15/5
f 1/1/1 8/16/1 7/2/1
f 3/4/2 1/17/2 2/5/2
f 8/7/3 6/18/3 5/8/3
f 6/10/4 3/19/4 4/11/4
f 1/13/5 3/20/5 6/14/5
