# Blender v2.80 (sub 39) OBJ File: 'House10m.blend'
# www.blender.org
mtllib House10m.mtl
o Road_End_RoadEnd
v 1.862792 0.200000 -1.404735
v 1.862792 -0.300000 -1.404735
v 1.862792 0.200000 -5.000000
v 1.862792 -0.300000 -5.000000
v 3.257700 -0.300000 -5.000000
v 3.257700 0.200000 -5.000000
v 3.257700 -0.300000 -1.404735
v 3.257700 0.200000 -1.404735
v 1.987584 0.157693 -1.828830
v 2.034843 2.186362 -1.828851
v 2.034843 0.248013 -1.828850
v 3.081357 2.186362 -1.829287
v 3.081413 0.248013 -1.690706
v 3.081413 2.186362 -1.690706
v 3.081357 0.248013 -1.829286
v 2.034902 0.248013 -1.690271
v 2.034902 2.186362 -1.690272
v 3.128616 2.276683 -1.829306
v 3.128616 0.157694 -1.829305
v 1.987584 2.276683 -1.828832
v 3.128688 2.276683 -1.508521
v 1.987656 0.157693 -1.508047
v 2.165829 1.303757 -1.661870
v 2.165761 1.226905 -1.827564
v 2.165829 1.226905 -1.661870
v 2.165761 1.303757 -1.827564
v 2.242612 1.226905 -1.827595
v 2.242612 1.303757 -1.827595
v 2.242681 1.226905 -1.661902
v 1.987656 2.276683 -1.508047
v 3.128688 0.157694 -1.508521
v 2.242681 1.303757 -1.661902
v -0.469259 2.650026 -1.667831
v -0.469259 1.065995 -1.708801
v -0.469259 2.650026 -1.708801
v 1.160540 2.695795 -1.547661
v 1.160540 1.020226 -1.708790
v 1.160540 2.695795 -1.708790
v -0.515027 1.020226 -1.708801
v 1.114771 1.065995 -1.708790
v 1.114771 2.650026 -1.708790
v 1.160540 1.020226 -1.547661
v -0.515027 2.695795 -1.708801
v -0.515027 1.020226 -1.547673
v 1.114771 1.065995 -1.667818
v -0.469259 1.065995 -1.667830
v -0.515027 2.695795 -1.547673
v 1.114771 2.650026 -1.667819
v -4.411222 -0.479218 4.640035
v -4.411222 3.608755 4.640034
v -4.411222 -0.479218 -1.577475
v -4.411222 3.608755 -1.577476
v 4.411222 -0.479218 4.640035
v 4.411222 3.608755 4.640034
v 4.411222 -0.479218 -1.577475
v 4.411222 3.608755 -1.577476
v -3.182009 2.650026 -1.667831
v -3.182009 1.065995 -1.708801
v -3.182009 2.650026 -1.708801
v -1.552210 2.695795 -1.547661
v -1.552210 1.020226 -1.708790
v -1.552210 2.695795 -1.708790
v -3.227777 1.020226 -1.708801
v -1.597979 1.065995 -1.708790
v -1.597979 2.650026 -1.708790
v -1.552210 1.020226 -1.547661
v -3.227777 2.695795 -1.708801
v -3.227777 1.020226 -1.547673
v -1.597979 1.065995 -1.667818
v -3.182009 1.065995 -1.667830
v -3.227777 2.695795 -1.547673
v -1.597979 2.650026 -1.667819
v -1.597978 2.650026 4.745320
v -1.597978 1.065995 4.786290
v -1.597978 2.650026 4.786290
v -3.227777 2.695795 4.625150
v -3.227777 1.020226 4.786279
v -3.227777 2.695795 4.786279
v -1.552211 1.020226 4.786290
v -3.182009 1.065995 4.786279
v -3.182009 2.650026 4.786279
v -3.227777 1.020226 4.625150
v -1.552211 2.695795 4.786290
v -1.552211 1.020226 4.625162
v -3.182009 1.065995 4.745307
v -1.597978 1.065995 4.745319
v -1.552211 2.695795 4.625162
v -3.182009 2.650026 4.745308
v 2.999688 2.650026 4.745320
v 2.999688 1.065995 4.786290
v 2.999688 2.650026 4.786290
v 1.369889 2.695795 4.625150
v 1.369889 1.020226 4.786279
v 1.369889 2.695795 4.786279
v 3.045456 1.020226 4.786290
v 1.415658 1.065995 4.786279
v 1.415658 2.650026 4.786279
v 1.369889 1.020226 4.625150
v 3.045456 2.695795 4.786290
v 3.045456 1.020226 4.625162
v 1.415658 1.065995 4.745307
v 2.999688 1.065995 4.745319
v 3.045456 2.695795 4.625162
v 1.415658 2.650026 4.745308
v -4.485952 2.650026 2.431224
v -4.526922 1.065995 2.431224
v -4.526922 2.650026 2.431224
v -4.365782 2.695795 0.801425
v -4.526911 1.020226 0.801425
v -4.526911 2.695795 0.801425
v -4.526922 1.020226 2.476992
v -4.526911 1.065995 0.847194
v -4.526911 2.650026 0.847194
v -4.365782 1.020226 0.801425
v -4.526922 2.695795 2.476992
v -4.365794 1.020226 2.476992
v -4.485939 1.065995 0.847194
v -4.485951 1.065995 2.431224
v -4.365794 2.695795 2.476992
v -4.485940 2.650026 0.847194
v 4.493876 2.650026 0.847194
v 4.534845 1.065995 0.847194
v 4.534845 2.650026 0.847194
v 4.373705 2.695795 2.476993
v 4.534834 1.020226 2.476993
v 4.534834 2.695795 2.476993
v 4.534845 1.020226 0.801426
v 4.534834 1.065995 2.431224
v 4.534834 2.650026 2.431224
v 4.373705 1.020226 2.476993
v 4.534845 2.695795 0.801426
v 4.373717 1.020226 0.801426
v 4.493862 1.065995 2.431224
v 4.493875 1.065995 0.847194
v 4.373717 2.695795 0.801426
v 4.493863 2.650026 2.431224
v -4.411222 5.883917 1.531280
v 4.411222 5.883917 1.531280
vt 0.375000 0.250000
vt 0.625000 0.000000
vt 0.375000 0.000000
vt 0.375000 0.500000
vt 0.625000 0.250000
vt 0.375000 0.250000
vt 0.375000 1.000000
vt 0.625000 0.750000
vt 0.375000 0.750000
vt 0.125000 0.750000
vt 0.375000 0.500000
vt 0.125000 0.500000
vt 0.625000 0.750000
vt 0.875000 0.500000
vt 0.625000 0.500000
vt 0.625000 0.250000
vt 0.625000 0.500000
vt 0.625000 1.000000
vt 0.375000 0.750000
vt 0.875000 0.750000
vt 1.000000 1.000000
vt 0.000000 1.000000
vt 1.000000 1.000000
vt 0.000000 0.000000
vt 1.000000 0.000000
vt 0.000000 0.000000
vt 1.000000 0.000000
vt 1.000000 1.000000
vt 0.000000 1.000000
vt 0.000000 0.000000
vt 1.000000 0.000000
vt 0.000000 1.000000
vt 0.000000 0.000000
vt 1.000000 1.000000
vt 0.625000 0.250000
vt 0.375000 0.500000
vt 0.375000 0.250000
vt 0.625000 0.500000
vt 0.375000 0.750000
vt 0.625000 0.750000
vt 0.375000 1.000000
vt 0.125000 0.500000
vt 0.125000 0.750000
vt 0.875000 0.500000
vt 0.000000 1.000000
vt 1.000000 0.000000
vt 0.625000 1.000000
vt 0.875000 0.750000
vt 0.000000 1.000000
vt 1.000000 1.000000
vt 0.000000 1.000000
vt 0.000000 0.000000
vt 1.000000 0.000000
vt 0.000000 0.000000
vt 1.000000 1.000000
vt 1.000000 0.000000
vt 0.000000 0.000000
vt 1.000000 0.000000
vt 0.000000 1.000000
vt 1.000000 1.000000
vt 1.000000 0.000000
vt 1.000000 1.000000
vt 0.000000 1.000000
vt 0.000000 0.000000
vt 0.000000 1.000000
vt 1.000000 1.000000
vt 0.000000 1.000000
vt 0.000000 0.000000
vt 1.000000 0.000000
vt 0.000000 0.000000
vt 1.000000 1.000000
vt 1.000000 0.000000
vt 0.000000 0.000000
vt 1.000000 0.000000
vt 0.000000 1.000000
vt 1.000000 1.000000
vt 1.000000 0.000000
vt 1.000000 1.000000
vt 0.000000 1.000000
vt 0.000000 0.000000
vt 0.000000 1.000000
vt 1.000000 1.000000
vt 0.000000 1.000000
vt 0.000000 0.000000
vt 1.000000 0.000000
vt 0.000000 0.000000
vt 1.000000 1.000000
vt 1.000000 0.000000
vt 0.000000 0.000000
vt 1.000000 0.000000
vt 0.000000 1.000000
vt 1.000000 1.000000
vt 1.000000 0.000000
vt 1.000000 1.000000
vt 0.000000 1.000000
vt 0.000000 0.000000
vt 0.000000 1.000000
vt 1.000000 1.000000
vt 0.000000 1.000000
vt 0.000000 0.000000
vt 1.000000 0.000000
vt 0.000000 0.000000
vt 1.000000 1.000000
vt 1.000000 0.000000
vt 0.000000 0.000000
vt 1.000000 0.000000
vt 0.000000 1.000000
vt 1.000000 1.000000
vt 1.000000 0.000000
vt 1.000000 1.000000
vt 0.000000 1.000000
vt 0.000000 0.000000
vt 0.000000 1.000000
vt 1.000000 1.000000
vt 0.000000 1.000000
vt 0.000000 0.000000
vt 1.000000 0.000000
vt 0.000000 0.000000
vt 1.000000 1.000000
vt 1.000000 0.000000
vt 0.000000 0.000000
vt 1.000000 0.000000
vt 0.000000 1.000000
vt 1.000000 1.000000
vt 1.000000 0.000000
vt 1.000000 1.000000
vt 0.000000 1.000000
vt 0.000000 0.000000
vt 0.000000 1.000000
vt 1.000000 1.000000
vt 0.000000 1.000000
vt 0.000000 0.000000
vt 1.000000 0.000000
vt 0.000000 0.000000
vt 1.000000 1.000000
vt 1.000000 0.000000
vt 0.000000 0.000000
vt 1.000000 0.000000
vt 0.000000 1.000000
vt 1.000000 1.000000
vt 1.000000 0.000000
vt 1.000000 1.000000
vt 0.000000 1.000000
vt 0.000000 0.000000
vt 0.625000 0.000000
vt 0.375000 0.250000
vt 0.375000 0.000000
vt 0.625000 0.250000
vt 0.375000 0.500000
vt 0.625000 0.750000
vt 0.375000 0.750000
vt 0.375000 1.000000
vt 0.625000 1.000000
vt 0.625000 0.250000
vt 0.625000 0.500000
vt 0.625000 0.500000
vn 0.0000 0.0000 1.0000
vn -1.0000 0.0000 0.0000
vn 1.0000 0.0000 0.0000
vn 0.0000 0.0000 -1.0000
vn 0.0000 1.0000 0.0000
vn -0.0004 -0.0000 -1.0000
vn -1.0000 0.0000 0.0004
vn 1.0000 -0.0000 -0.0004
vn -1.0000 0.0000 0.0002
vn 1.0000 0.0000 -0.0002
vn 0.0000 -1.0000 -0.0000
vn 0.0000 0.8070 -0.5906
vn 0.0000 0.8070 0.5906
usemtl Concrete
s off
f 7/1/1 1/2/1 2/3/1
f 2/4/2 3/5/2 4/6/2
f 5/7/3 8/8/3 7/9/3
f 4/10/4 6/11/4 5/12/4
f 6/13/5 1/14/5 8/15/5
f 7/1/1 8/16/1 1/2/1
f 2/4/2 1/17/2 3/5/2
f 5/7/3 6/18/3 8/8/3
f 4/10/4 3/19/4 6/11/4
f 6/13/5 3/20/5 1/14/5
usemtl Concrete.002
f 9/21/6 10/22/6 11/23/6
f 12/24/7 13/25/7 14/26/7
f 15/27/5 16/28/5 13/25/5
f 11/23/8 17/29/8 16/28/8
f 18/30/6 15/27/6 12/24/6
f 19/31/6 11/23/6 15/27/6
f 10/22/6 18/30/6 12/24/6
f 20/32/5 21/33/5 18/30/5
f 22/34/9 20/32/9 9/21/9
f 21/33/10 19/31/10 18/30/10
f 23/35/7 24/36/7 25/37/7
f 26/38/6 27/39/6 24/36/6
f 28/40/8 29/41/8 27/39/8
f 25/42/11 27/39/11 29/43/11
f 23/44/5 28/40/5 26/38/5
f 17/29/11 12/24/11 14/26/11
f 9/21/6 20/32/6 10/22/6
f 12/24/7 15/27/7 13/25/7
f 15/27/5 11/23/5 16/28/5
f 11/23/8 10/22/8 17/29/8
f 18/30/6 19/31/6 15/27/6
f 19/31/6 9/21/6 11/23/6
f 10/22/6 20/32/6 18/30/6
f 20/32/5 30/45/5 21/33/5
f 22/34/9 30/45/9 20/32/9
f 21/33/10 31/46/10 19/31/10
f 23/35/7 26/38/7 24/36/7
f 26/38/6 28/40/6 27/39/6
f 28/40/8 32/47/8 29/41/8
f 25/42/11 24/36/11 27/39/11
f 23/44/5 32/48/5 28/40/5
f 17/29/11 10/22/11 12/24/11
f 33/49/3 34/50/3 35/51/3
f 36/52/3 37/53/3 38/54/3
f 39/55/4 35/51/4 34/50/4
f 38/54/4 40/56/4 41/57/4
f 40/56/4 39/55/4 34/50/4
f 35/51/4 38/54/4 41/57/4
f 42/58/11 39/55/11 37/53/11
f 43/59/5 36/52/5 38/54/5
f 44/60/2 43/59/2 39/55/2
f 45/61/2 41/57/2 40/56/2
f 46/62/5 40/56/5 34/50/5
f 41/57/11 33/49/11 35/51/11
f 33/49/3 46/62/3 34/50/3
f 36/52/3 42/58/3 37/53/3
f 39/55/4 43/59/4 35/51/4
f 38/54/4 37/53/4 40/56/4
f 40/56/4 37/53/4 39/55/4
f 35/51/4 43/59/4 38/54/4
f 42/58/11 44/60/11 39/55/11
f 43/59/5 47/63/5 36/52/5
f 44/60/2 47/63/2 43/59/2
f 45/61/2 48/64/2 41/57/2
f 46/62/5 45/61/5 40/56/5
f 41/57/11 48/64/11 33/49/11
f 57/65/3 58/66/3 59/67/3
f 60/68/3 61/69/3 62/70/3
f 63/71/4 59/67/4 58/66/4
f 62/70/4 64/72/4 65/73/4
f 64/72/4 63/71/4 58/66/4
f 59/67/4 62/70/4 65/73/4
f 66/74/11 63/71/11 61/69/11
f 67/75/5 60/68/5 62/70/5
f 68/76/2 67/75/2 63/71/2
f 69/77/2 65/73/2 64/72/2
f 70/78/5 64/72/5 58/66/5
f 65/73/11 57/65/11 59/67/11
f 57/65/3 70/78/3 58/66/3
f 60/68/3 66/74/3 61/69/3
f 63/71/4 67/75/4 59/67/4
f 62/70/4 61/69/4 64/72/4
f 64/72/4 61/69/4 63/71/4
f 59/67/4 67/75/4 62/70/4
f 66/74/11 68/76/11 63/71/11
f 67/75/5 71/79/5 60/68/5
f 68/76/2 71/79/2 67/75/2
f 69/77/2 72/80/2 65/73/2
f 70/78/5 69/77/5 64/72/5
f 65/73/11 72/80/11 57/65/11
f 73/81/2 74/82/2 75/83/2
f 76/84/2 77/85/2 78/86/2
f 79/87/1 75/83/1 74/82/1
f 78/86/1 80/88/1 81/89/1
f 80/88/1 79/87/1 74/82/1
f 75/83/1 78/86/1 81/89/1
f 82/90/11 79/87/11 77/85/11
f 83/91/5 76/84/5 78/86/5
f 84/92/3 83/91/3 79/87/3
f 85/93/3 81/89/3 80/88/3
f 86/94/5 80/88/5 74/82/5
f 81/89/11 73/81/11 75/83/11
f 73/81/2 86/94/2 74/82/2
f 76/84/2 82/90/2 77/85/2
f 79/87/1 83/91/1 75/83/1
f 78/86/1 77/85/1 80/88/1
f 80/88/1 77/85/1 79/87/1
f 75/83/1 83/91/1 78/86/1
f 82/90/11 84/92/11 79/87/11
f 83/91/5 87/95/5 76/84/5
f 84/92/3 87/95/3 83/91/3
f 85/93/3 88/96/3 81/89/3
f 86/94/5 85/93/5 80/88/5
f 81/89/11 88/96/11 73/81/11
f 89/97/2 90/98/2 91/99/2
f 92/100/2 93/101/2 94/102/2
f 95/103/1 91/99/1 90/98/1
f 94/102/1 96/104/1 97/105/1
f 96/104/1 95/103/1 90/98/1
f 91/99/1 94/102/1 97/105/1
f 98/106/11 95/103/11 93/101/11
f 99/107/5 92/100/5 94/102/5
f 100/108/3 99/107/3 95/103/3
f 101/109/3 97/105/3 96/104/3
f 102/110/5 96/104/5 90/98/5
f 97/105/11 89/97/11 91/99/11
f 89/97/2 102/110/2 90/98/2
f 92/100/2 98/106/2 93/101/2
f 95/103/1 99/107/1 91/99/1
f 94/102/1 93/101/1 96/104/1
f 96/104/1 93/101/1 95/103/1
f 91/99/1 99/107/1 94/102/1
f 98/106/11 100/108/11 95/103/11
f 99/107/5 103/111/5 92/100/5
f 100/108/3 103/111/3 99/107/3
f 101/109/3 104/112/3 97/105/3
f 102/110/5 101/109/5 96/104/5
f 97/105/11 104/112/11 89/97/11
f 105/113/4 106/114/4 107/115/4
f 108/116/4 109/117/4 110/118/4
f 111/119/2 107/115/2 106/114/2
f 110/118/2 112/120/2 113/121/2
f 112/120/2 111/119/2 106/114/2
f 107/115/2 110/118/2 113/121/2
f 114/122/11 111/119/11 109/117/11
f 115/123/5 108/116/5 110/118/5
f 116/124/1 115/123/1 111/119/1
f 117/125/1 113/121/1 112/120/1
f 118/126/5 112/120/5 106/114/5
f 113/121/11 105/113/11 107/115/11
f 105/113/4 118/126/4 106/114/4
f 108/116/4 114/122/4 109/117/4
f 111/119/2 115/123/2 107/115/2
f 110/118/2 109/117/2 112/120/2
f 112/120/2 109/117/2 111/119/2
f 107/115/2 115/123/2 110/118/2
f 114/122/11 116/124/11 111/119/11
f 115/123/5 119/127/5 108/116/5
f 116/124/1 119/127/1 115/123/1
f 117/125/1 120/128/1 113/121/1
f 118/126/5 117/125/5 112/120/5
f 113/121/11 120/128/11 105/113/11
f 121/129/1 122/130/1 123/131/1
f 124/132/1 125/133/1 126/134/1
f 127/135/3 123/131/3 122/130/3
f 126/134/3 128/136/3 129/137/3
f 128/136/3 127/135/3 122/130/3
f 123/131/3 126/134/3 129/137/3
f 130/138/11 127/135/11 125/133/11
f 131/139/5 124/132/5 126/134/5
f 132/140/4 131/139/4 127/135/4
f 133/141/4 129/137/4 128/136/4
f 134/142/5 128/136/5 122/130/5
f 129/137/11 121/129/11 123/131/11
f 121/129/1 134/142/1 122/130/1
f 124/132/1 130/138/1 125/133/1
f 127/135/3 131/139/3 123/131/3
f 126/134/3 125/133/3 128/136/3
f 128/136/3 125/133/3 127/135/3
f 123/131/3 131/139/3 126/134/3
f 130/138/11 132/140/11 127/135/11
f 131/139/5 135/143/5 124/132/5
f 132/140/4 135/143/4 131/139/4
f 133/141/4 136/144/4 129/137/4
f 134/142/5 133/141/5 128/136/5
f 129/137/11 136/144/11 121/129/11
usemtl Wall
f 50/145/2 51/146/2 49/147/2
f 52/148/4 55/149/4 51/146/4
f 55/149/3 54/150/3 53/151/3
f 54/150/1 49/152/1 53/151/1
f 52/148/2 50/153/2 137/154/2
f 56/155/3 138/156/3 54/150/3
f 50/145/2 52/148/2 51/146/2
f 52/148/4 56/155/4 55/149/4
f 55/149/3 56/155/3 54/150/3
f 54/150/1 50/153/1 49/152/1
usemtl Roof.001
f 52/148/12 138/156/12 56/155/12
f 138/156/13 50/153/13 54/150/13
f 52/148/12 137/154/12 138/156/12
f 138/156/13 137/154/13 50/153/13
usemtl Door
f 13/25/6 17/29/6 14/26/6
f 13/25/6 16/28/6 17/29/6
usemtl Glass
f 45/61/4 33/49/4 48/64/4
f 45/61/4 46/62/4 33/49/4
f 69/77/4 57/65/4 72/80/4
f 69/77/4 70/78/4 57/65/4
f 85/93/1 73/81/1 88/96/1
f 85/93/1 86/94/1 73/81/1
f 101/109/1 89/97/1 104/112/1
f 101/109/1 102/110/1 89/97/1
f 117/125/2 105/113/2 120/128/2
f 117/125/2 118/126/2 105/113/2
f 133/141/3 121/129/3 136/144/3
f 133/141/3 134/142/3 121/129/3
