# Blender v2.80 (sub 57) OBJ File: 'Car.blend'
# www.blender.org
mtllib Car_Gray.mtl
o Cube
v -0.585107 0.499159 -1.449325
v -0.585107 0.421840 -1.262659
v -0.585107 0.235174 -1.185339
v -0.585107 -0.028812 -1.449325
v -0.688324 0.235174 -1.713311
v -0.688324 0.421840 -1.635991
v -0.688324 0.421840 -1.262659
v -0.688324 0.235174 -1.185339
v -0.688324 0.048507 -1.262659
v -0.688324 0.048507 -1.635991
v 0.688324 0.235174 -1.713311
v 0.688324 0.421840 -1.635991
v 0.688324 0.499159 -1.449325
v 0.688324 0.421840 -1.262659
v 0.688324 0.235174 -1.185339
v 0.688324 0.048507 -1.262659
v 0.688324 -0.028812 -1.449325
v 0.688324 0.048507 -1.635991
v 0.585107 0.235174 -1.713311
v 0.585107 0.499159 -1.449325
v 0.585107 0.421840 -1.262659
v 0.585107 0.235174 -1.185339
v 0.585107 0.048507 -1.262659
v 0.585107 0.048507 -1.635991
v -0.585107 0.235174 0.496547
v -0.585107 0.421840 0.573867
v -0.585107 0.421840 0.947199
v -0.585107 0.235174 1.024519
v -0.585107 0.048507 0.947199
v -0.585107 -0.028812 0.760533
v -0.585107 0.048507 0.573867
v -0.688324 0.235174 0.496547
v -0.688324 0.421840 0.573867
v -0.688324 0.499159 0.760533
v -0.688324 0.421840 0.947199
v -0.688324 0.235174 1.024519
v -0.688324 0.048507 0.947199
v -0.688324 -0.028812 0.760533
v -0.688324 0.048507 0.573867
v 0.688324 0.421840 0.573867
v 0.688324 0.421840 0.947199
v 0.688324 0.235174 1.024519
v 0.688324 0.048507 0.947199
v 0.688324 0.048507 0.573867
v 0.585107 0.235174 0.496547
v 0.585107 0.421840 0.573867
v 0.585107 0.421840 0.947199
v 0.585107 0.235174 1.024519
v 0.585107 0.048507 0.947199
v 0.585107 -0.028812 0.760533
v 0.585107 0.048507 0.573867
v -0.710356 0.728462 0.423069
v -0.710356 0.728462 -0.988852
v -0.638726 0.728462 1.147020
v 0.638726 0.728462 1.147020
v -0.638726 0.212418 1.326883
v -0.643229 0.735976 -1.388962
v 0.643229 0.735976 -1.388962
v 0.601874 0.657312 -2.082599
v -0.710356 0.212418 0.423069
v -0.710356 0.212418 -0.988852
v -0.638726 0.212418 0.423069
v -0.638726 0.212418 -0.988852
v -0.710356 0.212418 -1.114652
v -0.638726 0.212418 -1.114652
v -0.710356 0.471199 -1.167634
v -0.638726 0.471199 -1.167634
v -0.710356 0.568392 -1.442457
v -0.638726 0.568392 -1.442457
v -0.710356 0.490432 -1.668883
v -0.638726 0.490432 -1.668883
v -0.710356 0.345978 -1.789584
v -0.638726 0.345978 -1.789584
v -0.710356 0.212418 -1.789309
v -0.638726 0.212418 -1.789309
v -0.710356 0.212418 0.450614
v -0.638726 0.212418 0.450614
v -0.710356 0.468968 0.538786
v -0.638726 0.468968 0.538786
v -0.710356 0.542526 0.758030
v -0.638726 0.542526 0.758030
v -0.710356 0.495997 0.950053
v -0.638726 0.495997 0.950053
v -0.710356 0.212418 1.098762
v -0.638726 0.212418 1.098762
v 0.585107 0.421840 -1.635991
v 0.585107 -0.028812 -1.449325
v -0.688324 0.499159 -1.449325
v -0.688324 -0.028812 -1.449325
v -0.585107 0.235174 -1.713311
v -0.585107 0.421840 -1.635991
v -0.585107 0.048507 -1.262659
v -0.585107 0.048507 -1.635991
v 0.585107 0.499159 0.760533
v 0.688324 0.235174 0.496547
v 0.688324 0.499159 0.760533
v 0.688324 -0.028812 0.760533
v -0.585107 0.499159 0.760533
v 0.540807 1.136191 0.423069
v -0.540807 1.136191 0.423069
v 0.540807 1.136191 -0.988852
v -0.540807 1.136191 -0.988852
v 0.710356 0.728462 0.423069
v 0.710356 0.728462 -0.988852
v 0.638726 0.489606 1.296763
v -0.638726 0.489606 1.296763
v 0.638726 0.212418 1.326883
v 0.530091 0.212418 -2.082597
v -0.530091 0.212418 -2.082597
v -0.601874 0.657312 -2.082599
v 0.710356 0.212418 0.423069
v 0.710356 0.212418 -0.988852
v 0.638726 0.212418 0.423069
v 0.638726 0.212418 -0.988852
v 0.710356 0.212418 -1.114652
v 0.638726 0.212418 -1.114652
v 0.710356 0.471199 -1.167634
v 0.638726 0.471199 -1.167634
v 0.710356 0.568392 -1.442457
v 0.638726 0.568392 -1.442457
v 0.710356 0.490432 -1.668883
v 0.638726 0.490432 -1.668883
v 0.710356 0.345978 -1.789584
v 0.638726 0.345978 -1.789584
v 0.710356 0.212418 -1.789309
v 0.638726 0.212418 -1.789309
v 0.710356 0.212418 0.450614
v 0.638726 0.212418 0.450614
v 0.710356 0.468968 0.538786
v 0.638726 0.468968 0.538786
v 0.710356 0.542526 0.758030
v 0.638726 0.542526 0.758030
v 0.710356 0.495997 0.950053
v 0.638726 0.495997 0.950053
v 0.710356 0.212418 1.098762
v 0.638726 0.212418 1.098762
v -0.551845 1.109647 -0.988852
v -0.550374 1.113186 0.423069
v -0.545027 1.119701 -1.005338
v 0.545731 1.116950 -1.008088
v 0.559355 1.058957 0.488172
v -0.559519 1.058277 0.488745
v -0.615519 0.825096 0.685298
v 0.615211 0.826378 0.684217
v -0.551199 1.111202 -0.368587
v -0.551159 1.111297 -0.330661
v -0.710356 0.728462 -0.367411
v -0.710356 0.728462 -0.321553
v 0.550170 1.113676 0.423069
v 0.549832 1.114487 -0.988852
v 0.710356 0.728462 -0.274651
v 0.710356 0.728462 -0.234835
v 0.550008 1.114065 -0.253822
v 0.550001 1.114082 -0.282359
v -0.470293 0.604789 -2.105067
v -0.543607 0.562461 -2.105067
v -0.543607 0.477804 -2.105067
v -0.470293 0.435476 -2.105067
v -0.396979 0.477804 -2.105067
v -0.396979 0.562461 -2.105067
v -0.470293 0.604789 -2.068700
v -0.543607 0.562461 -2.068700
v -0.543607 0.477804 -2.068700
v -0.470293 0.435476 -2.068700
v -0.396979 0.477804 -2.068700
v -0.396979 0.562461 -2.068700
v 0.470293 0.604789 -2.105067
v 0.396978 0.562461 -2.105067
v 0.396978 0.477804 -2.105067
v 0.470293 0.435476 -2.105067
v 0.543607 0.477804 -2.105067
v 0.543607 0.562461 -2.105067
v 0.470293 0.604789 -2.068700
v 0.396978 0.562461 -2.068700
v 0.396978 0.477804 -2.068700
v 0.470293 0.435476 -2.068700
v 0.543607 0.477804 -2.068700
v 0.543607 0.562461 -2.068700
v -0.275233 0.274586 -2.043036
v -0.275233 0.577862 -2.043036
v -0.275233 0.274586 -2.109521
v -0.275233 0.577862 -2.109521
v 0.275233 0.274586 -2.043036
v 0.275233 0.577862 -2.043036
v 0.275233 0.274586 -2.109521
v 0.275233 0.577862 -2.109521
vt 0.000000 0.000000
vt 0.000000 1.000000
vt 0.000000 1.000000
vt 0.000000 0.560694
vt 0.000000 0.533833
vt 0.000000 0.000000
vt 1.000000 0.000000
vt 0.000000 0.000000
vt 1.000000 0.000000
vt 0.000000 0.000000
vt 0.000000 0.000000
vt 0.000000 0.000000
vt 1.000000 0.000000
vt 0.000000 0.000000
vt 1.000000 0.000000
vt 0.000000 0.000000
vt 1.000000 0.000000
vt 1.000000 1.000000
vt 1.000000 1.000000
vt 0.000000 1.000000
vt 0.000000 1.000000
vt 1.000000 1.000000
vt 1.000000 1.000000
vt 0.000000 1.000000
vt 0.000000 0.000000
vt 1.000000 0.000000
vt 0.000000 1.000000
vt 0.000000 0.527382
vt 0.000000 0.559862
vt 0.000000 1.000000
vt 0.000000 0.000000
vt 0.000000 1.000000
vt 0.000000 0.000000
vt 0.000000 1.000000
vt 0.000000 1.000000
vt 0.000000 1.000000
vt 0.000000 1.000000
vt 0.000000 1.000000
vt 0.000000 1.000000
vt 0.000000 1.000000
vt 0.000000 1.000000
vt 0.000000 1.000000
vt 0.000000 1.000000
vt 0.000000 1.000000
vt 0.000000 1.000000
vt 0.000000 0.000000
vt 0.000000 0.000000
vt 0.000000 0.000000
vt 0.000000 0.000000
vt 0.000000 0.000000
vt 0.000000 0.000000
vt 0.000000 0.000000
vt 0.000000 0.000000
vt 0.000000 0.000000
vt 0.000000 0.000000
vt 0.000000 0.000000
vt 0.000000 1.000000
vt 1.000000 1.000000
vt 1.000000 0.000000
vt 0.000000 0.000000
vt 0.000000 0.479412
vt 0.000000 0.499623
vt 0.000000 1.000000
vt 0.000000 0.000000
vt 0.000000 0.000000
vt 0.000000 0.000000
vt 0.000000 0.000000
vt 0.000000 1.000000
vt 0.000000 1.000000
vt 0.000000 1.000000
vt 0.000000 1.000000
vt 0.000000 0.000000
vt 0.000000 0.000000
vt 0.000000 1.000000
vt 0.000000 0.494164
vt 0.000000 0.465964
vt 0.000000 0.000000
vt 0.000000 1.000000
vt 0.000000 1.000000
vt 0.000000 1.000000
vt 0.000000 1.000000
vt 0.000000 1.000000
vt 0.000000 1.000000
vt 0.000000 1.000000
vt 0.000000 1.000000
vt 0.000000 1.000000
vt 0.000000 1.000000
vt 0.000000 1.000000
vt 0.000000 1.000000
vt 0.000000 1.000000
vt 0.000000 0.000000
vt 0.000000 0.000000
vt 0.000000 0.000000
vt 0.000000 0.000000
vt 0.000000 0.000000
vt 0.000000 0.000000
vt 0.000000 0.000000
vt 0.000000 0.000000
vt 0.000000 0.000000
vt 0.000000 0.000000
vt 0.000000 0.000000
vt 0.000000 0.000000
vt 1.000000 0.000000
vt 0.000000 0.000000
vt 0.000000 0.000000
vt 0.000000 0.000000
vt 0.000000 0.000000
vt 0.000000 0.000000
vt 0.000000 0.000000
vt 0.000000 0.000000
vt 0.000000 0.000000
vt 0.000000 0.000000
vt 0.000000 0.000000
vt 0.000000 0.000000
vt 0.000000 0.000000
vt 0.000000 0.000000
vt 0.000000 0.000000
vt 0.000000 0.000000
vt 0.000000 0.000000
vt 0.000000 0.000000
vt 0.000000 0.000000
vt 0.000000 0.000000
vt 0.000000 0.000000
vt 0.000000 0.000000
vt 0.000000 0.000000
vt 0.000000 0.000000
vt 0.000000 0.000000
vt 0.000000 0.000000
vt 0.000000 0.000000
vt 0.000000 0.000000
vt 0.000000 0.000000
vt 0.000000 0.000000
vt 0.000000 0.000000
vt 0.000000 0.000000
vt 0.000000 0.000000
vt 0.000000 0.000000
vt 0.000000 0.000000
vt 0.000000 0.000000
vt 0.000000 0.000000
vt 0.000000 0.000000
vt 0.000000 0.000000
vt 0.000000 0.000000
vt 0.000000 0.000000
vt 0.000000 0.000000
vt 0.000000 0.000000
vt 0.000000 0.000000
vt 0.000000 0.000000
vt 0.000000 0.000000
vt 0.000000 0.000000
vt 0.000000 0.000000
vt 0.000000 0.000000
vt 0.000000 0.000000
vt 0.000000 0.000000
vt 0.000000 0.000000
vt 0.000000 0.000000
vt 0.000000 0.000000
vt 0.000000 0.000000
vt 0.000000 0.000000
vt 0.000000 0.000000
vt 0.000000 0.000000
vt 0.000000 0.000000
vt 0.000000 0.000000
vt 0.000000 0.000000
vt 0.000000 0.000000
vt 0.000000 0.000000
vt 0.000000 0.000000
vt 0.000000 0.000000
vt 0.375000 0.000000
vt 0.625000 0.000000
vt 0.625000 0.250000
vt 0.375000 0.250000
vt 0.625000 0.500000
vt 0.375000 0.500000
vt 0.625000 0.750000
vt 0.375000 0.750000
vt 0.125000 0.500000
vt 0.125000 0.750000
vt 0.875000 0.500000
vt 0.875000 0.750000
vt 0.000000 0.000000
vt 0.000000 0.000000
vt 0.000000 0.000000
vt 0.000000 0.000000
vt 0.000000 0.000000
vt 0.000000 0.000000
vt 0.000000 0.000000
vt 0.000000 0.000000
vt 0.000000 0.000000
vt 0.000000 0.000000
vt 0.000000 0.000000
vt 0.000000 0.000000
vt 0.000000 0.000000
vt 0.000000 0.000000
vt 0.000000 0.000000
vt 0.000000 0.000000
vt 0.000000 0.000000
vt 0.000000 0.000000
vt 0.000000 0.000000
vt 0.000000 0.000000
vt 0.000000 0.000000
vt 0.000000 0.000000
vt 0.000000 0.000000
vt 0.000000 0.000000
vn -0.9233 0.3840 0.0000
vn 0.0000 0.6445 0.7646
vn -0.8731 0.4657 0.1442
vn 0.0000 0.5312 0.8473
vn 0.0000 0.1080 0.9941
vn 0.0000 0.7070 -0.7072
vn 0.0000 0.9936 -0.1127
vn 0.0000 -0.0000 -1.0000
vn -0.9134 0.3798 -0.1461
vn -0.7686 0.6289 -0.1171
vn -0.9933 0.0616 0.0983
vn -1.0000 0.0000 0.0000
vn 0.0000 -1.0000 0.0000
vn 0.0000 -0.2006 -0.9797
vn 0.0000 -0.9428 -0.3334
vn 0.0000 -0.9455 0.3256
vn 0.0000 -0.6412 0.7674
vn 0.0000 0.0021 1.0000
vn -0.9393 0.3237 -0.1142
vn -0.9376 0.3288 -0.1132
vn -0.9689 0.1588 -0.1900
vn -0.9375 -0.0007 -0.3479
vn -0.8440 -0.1362 -0.5188
vn 0.0000 -0.3250 0.9457
vn 0.0000 -0.9481 0.3181
vn 0.0000 -0.9719 -0.2355
vn 0.0000 -0.4644 -0.8856
vn -0.9488 0.2761 0.1533
vn -0.7252 0.6692 0.1622
vn -0.9734 0.1065 0.2031
vn -0.9536 0.0325 0.2994
vn 0.0000 1.0000 0.0000
vn 0.9233 0.3840 0.0000
vn 0.8735 0.4651 0.1438
vn 0.9134 0.3798 -0.1461
vn 0.7686 0.6289 -0.1171
vn 0.9933 0.0616 0.0983
vn 1.0000 -0.0000 0.0000
vn 0.9393 0.3237 -0.1142
vn 0.9376 0.3288 -0.1132
vn 0.9689 0.1588 -0.1900
vn 0.9375 -0.0007 -0.3479
vn 0.8440 -0.1362 -0.5188
vn 0.9488 0.2761 0.1533
vn 0.7252 0.6692 0.1622
vn 0.9734 0.1065 0.2031
vn 0.9536 0.0325 0.2994
vn -0.0004 0.9786 0.2059
vn 0.0000 -0.9239 -0.3827
vn 0.0000 -0.3827 0.9239
vn 0.0000 0.9239 0.3827
vn 0.0000 0.3827 -0.9239
vn 0.0000 -0.3827 -0.9239
vn 0.0000 -0.9239 0.3827
vn 0.0000 0.3827 0.9239
vn 0.0000 0.9239 -0.3827
vn 0.5000 0.8660 0.0000
vn 0.5000 -0.8660 0.0000
vn -0.5000 -0.8660 0.0000
vn -0.5000 0.8660 0.0000
usemtl Paint
s off
f 100/1/1 102/2/1 137/3/1 145/4/1 146/5/1 138/6/1
f 99/7/2 100/1/2 142/8/2 141/9/2
f 100/1/3 138/6/3 52/10/3 54/11/3 143/12/3 142/8/3
f 55/13/4 54/11/4 106/14/4 105/15/4
f 105/15/5 106/14/5 56/16/5 107/17/5
f 102/2/6 101/18/6 140/19/6 139/20/6
f 57/21/7 58/22/7 59/23/7 110/24/7
f 109/25/8 110/24/8 59/23/8 108/26/8
f 102/2/9 139/20/9 57/21/9 53/27/9 137/3/9
f 57/21/10 110/24/10 53/27/10
f 54/11/11 52/10/11 106/14/11
f 52/10/12 148/28/12 147/29/12 53/27/12 61/30/12 60/31/12
f 60/31/13 61/30/13 63/32/13 62/33/13
f 63/32/13 61/30/13 64/34/13 65/35/13
f 65/35/14 64/34/14 66/36/14 67/37/14
f 67/37/15 66/36/15 68/38/15 69/39/15
f 69/39/16 68/38/16 70/40/16 71/41/16
f 71/41/17 70/40/17 72/42/17 73/43/17
f 73/43/18 72/42/18 74/44/18 75/45/18
f 53/27/12 66/36/12 64/34/12 61/30/12
f 66/36/12 53/27/12 68/38/12
f 53/27/19 110/24/19 68/38/19
f 68/38/20 110/24/20 70/40/20
f 72/42/21 70/40/21 110/24/21
f 74/44/22 72/42/22 110/24/22
f 110/24/23 109/25/23 74/44/23
f 67/37/12 69/39/12 71/41/12 73/43/12 75/45/12 65/35/12
f 60/31/13 62/33/13 77/46/13 76/47/13
f 76/47/24 77/46/24 79/48/24 78/49/24
f 78/49/25 79/48/25 81/50/25 80/51/25
f 80/51/26 81/50/26 83/52/26 82/53/26
f 82/53/27 83/52/27 85/54/27 84/55/27
f 77/46/12 85/54/12 83/52/12 81/50/12 79/48/12
f 60/31/12 76/47/12 52/10/12
f 76/47/12 78/49/12 52/10/12
f 78/49/12 80/51/12 52/10/12
f 52/10/28 80/51/28 106/14/28
f 80/51/29 82/53/29 106/14/29
f 82/53/30 84/55/30 106/14/30
f 106/14/31 84/55/31 56/16/31
f 84/55/13 85/54/13 56/16/13
f 74/44/13 109/25/13 75/45/13
f 99/56/32 101/57/32 102/58/32 100/59/32
f 99/56/33 149/60/33 153/61/33 154/62/33 150/63/33 101/57/33
f 99/56/34 141/64/34 144/65/34 55/66/34 103/67/34 149/60/34
f 101/57/35 150/63/35 104/68/35 58/69/35 140/70/35
f 58/69/36 104/68/36 59/71/36
f 55/66/37 105/72/37 103/67/37
f 103/67/38 111/73/38 112/74/38 104/68/38 151/75/38 152/76/38
f 111/73/13 113/77/13 114/78/13 112/74/13
f 114/78/13 116/79/13 115/80/13 112/74/13
f 116/79/14 118/81/14 117/82/14 115/80/14
f 118/81/15 120/83/15 119/84/15 117/82/15
f 120/83/16 122/85/16 121/86/16 119/84/16
f 122/85/17 124/87/17 123/88/17 121/86/17
f 124/87/18 126/89/18 125/90/18 123/88/18
f 104/68/38 112/74/38 115/80/38 117/82/38
f 117/82/38 119/84/38 104/68/38
f 104/68/39 119/84/39 59/71/39
f 119/84/40 121/86/40 59/71/40
f 123/88/41 59/71/41 121/86/41
f 125/90/42 59/71/42 123/88/42
f 59/71/43 125/90/43 108/91/43
f 118/81/38 116/79/38 126/89/38 124/87/38 122/85/38 120/83/38
f 111/73/13 127/92/13 128/93/13 113/77/13
f 127/92/24 129/94/24 130/95/24 128/93/24
f 129/94/25 131/96/25 132/97/25 130/95/25
f 131/96/26 133/98/26 134/99/26 132/97/26
f 133/98/27 135/100/27 136/101/27 134/99/27
f 128/93/38 130/95/38 132/97/38 134/99/38 136/101/38
f 111/73/38 103/67/38 127/92/38
f 127/92/38 103/67/38 129/94/38
f 129/94/38 103/67/38 131/96/38
f 103/67/44 105/72/44 131/96/44
f 131/96/45 105/72/45 133/98/45
f 133/98/46 105/72/46 135/100/46
f 105/72/47 107/102/47 135/100/47
f 135/100/13 107/102/13 136/101/13
f 125/90/13 126/89/13 108/91/13
f 144/103/48 143/12/48 54/11/48 55/13/48
f 148/28/1 146/5/1 145/4/1 147/29/1
f 151/75/33 154/62/33 153/61/33 152/76/33
usemtl Wheel
f 93/104/49 4/105/49 89/106/49 10/107/49
f 92/108/50 3/109/50 8/110/50 9/111/50
f 2/112/51 1/113/51 88/114/51 7/115/51
f 91/116/52 90/117/52 5/118/52 6/119/52
f 90/117/53 93/104/53 10/107/53 5/118/53
f 4/105/54 92/108/54 9/111/54 89/106/54
f 3/109/55 2/112/55 7/115/55 8/110/55
f 1/113/56 91/116/56 6/119/56 88/114/56
f 6/119/12 5/118/12 10/107/12 89/106/12 9/111/12 8/110/12 7/115/12 88/114/12
f 91/116/38 1/113/38 2/112/38 3/109/38 92/108/38 4/105/38 93/104/38 90/117/38
f 18/120/49 17/121/49 87/122/49 24/123/49
f 16/124/50 15/125/50 22/126/50 23/127/50
f 14/128/51 13/129/51 20/130/51 21/131/51
f 12/132/52 11/133/52 19/134/52 86/135/52
f 11/133/53 18/120/53 24/123/53 19/134/53
f 17/121/54 16/124/54 23/127/54 87/122/54
f 15/125/55 14/128/55 21/131/55 22/126/55
f 13/129/56 12/132/56 86/135/56 20/130/56
f 86/135/12 19/134/12 24/123/12 87/122/12 23/127/12 22/126/12 21/131/12 20/130/12
f 12/132/38 13/129/38 14/128/38 15/125/38 16/124/38 17/121/38 18/120/38 11/133/38
f 31/136/49 30/137/49 38/138/49 39/139/49
f 29/140/50 28/141/50 36/142/50 37/143/50
f 27/144/51 98/145/51 34/146/51 35/147/51
f 26/148/52 25/149/52 32/150/52 33/151/52
f 25/149/53 31/136/53 39/139/53 32/150/53
f 30/137/54 29/140/54 37/143/54 38/138/54
f 28/141/55 27/144/55 35/147/55 36/142/55
f 98/145/56 26/148/56 33/151/56 34/146/56
f 33/151/12 32/150/12 39/139/12 38/138/12 37/143/12 36/142/12 35/147/12 34/146/12
f 26/148/38 98/145/38 27/144/38 28/141/38 29/140/38 30/137/38 31/136/38 25/149/38
f 44/152/49 97/153/49 50/154/49 51/155/49
f 43/156/50 42/157/50 48/158/50 49/159/50
f 41/160/51 96/161/51 94/162/51 47/163/51
f 40/164/52 95/165/52 45/166/52 46/167/52
f 95/165/53 44/152/53 51/155/53 45/166/53
f 97/153/54 43/156/54 49/159/54 50/154/54
f 42/157/55 41/160/55 47/163/55 48/158/55
f 96/161/56 40/164/56 46/167/56 94/162/56
f 46/167/12 45/166/12 51/155/12 50/154/12 49/159/12 48/158/12 47/163/12 94/162/12
f 40/164/38 96/161/38 41/160/38 42/157/38 43/156/38 97/153/38 44/152/38 95/165/38
f 107/17/13 56/16/13 109/25/13 108/26/13
f 179/168/12 180/169/12 182/170/12 181/171/12
f 181/171/8 182/170/8 186/172/8 185/173/8
f 185/173/38 186/172/38 184/174/38 183/175/38
f 181/176/13 185/173/13 183/175/13 179/177/13
f 186/172/32 182/178/32 180/179/32 184/174/32
usemtl Window
f 138/6/1 146/5/1 148/28/1 52/10/1
f 139/20/6 140/19/6 58/22/6 57/21/6
f 141/9/2 142/8/2 143/12/2 144/103/2
f 147/29/1 145/4/1 137/3/1 53/27/1
f 150/63/33 154/62/33 151/75/33 104/68/33
f 152/76/33 153/61/33 149/60/33 103/67/33
f 155/180/57 161/181/57 166/182/57 160/183/57
f 159/184/58 165/185/58 164/186/58 158/187/58
f 157/188/12 163/189/12 162/190/12 156/191/12
f 160/183/38 166/182/38 165/185/38 159/184/38
f 158/187/59 164/186/59 163/189/59 157/188/59
f 156/191/60 162/190/60 161/181/60 155/180/60
f 156/191/8 155/180/8 160/183/8 159/184/8 158/187/8 157/188/8
f 167/192/57 173/193/57 178/194/57 172/195/57
f 171/196/58 177/197/58 176/198/58 170/199/58
f 169/200/12 175/201/12 174/202/12 168/203/12
f 172/195/38 178/194/38 177/197/38 171/196/38
f 170/199/59 176/198/59 175/201/59 169/200/59
f 168/203/60 174/202/60 173/193/60 167/192/60
f 168/203/8 167/192/8 172/195/8 171/196/8 170/199/8 169/200/8
