# Blender v2.80 (sub 57) OBJ File: 'crate.blend'
# www.blender.org
mtllib crate.mtl
o Cube
v 0.500000 0.034770 0.465230
v 0.500000 0.965230 0.465230
v 0.500000 0.034770 -0.465230
v 0.500000 0.965230 -0.465230
v 0.476428 0.034770 0.465230
v 0.476428 0.965230 0.465230
v 0.476428 0.034770 -0.465230
v 0.476428 0.965230 -0.465230
v -0.500000 0.000000 0.500000
v -0.500000 0.034770 0.465230
v -0.500000 0.965230 0.465230
v -0.500000 0.034770 -0.465230
v -0.500000 0.965230 -0.465230
v -0.476429 0.034770 0.465230
v -0.476429 0.965230 0.465230
v -0.476429 0.034770 -0.465230
v -0.476429 0.965230 -0.465230
v -0.500000 1.000000 0.500000
v 0.465230 0.034770 0.500000
v 0.465230 0.965230 0.500000
v -0.465230 0.034770 0.500000
v -0.465230 0.965230 0.500000
v 0.465230 0.034770 0.476428
v 0.465230 0.965230 0.476428
v -0.465230 0.034770 0.476428
v -0.465230 0.965230 0.476428
v 0.465230 0.034770 -0.500000
v 0.465230 0.965230 -0.500000
v -0.465230 0.034770 -0.500000
v -0.465230 0.965230 -0.500000
v 0.465230 0.034770 -0.476428
v 0.465230 0.965230 -0.476428
v -0.465230 0.034770 -0.476429
v -0.465230 0.965230 -0.476429
v -0.500000 1.000002 -0.500000
v 0.500000 1.000002 0.500000
v 0.500000 1.000002 -0.500000
v 0.465230 1.000002 -0.465230
v 0.465230 1.000002 0.465230
v -0.465230 1.000002 -0.465230
v -0.465230 1.000002 0.465230
v 0.465230 0.976430 -0.465230
v 0.465230 0.976430 0.465230
v -0.465230 0.976431 -0.465230
v -0.465230 0.976431 0.465230
v -0.500000 -0.000002 -0.500000
v 0.500000 -0.000002 0.500000
v 0.500000 -0.000002 -0.500000
v 0.465230 -0.000002 -0.465230
v 0.465230 -0.000002 0.465230
v -0.465230 -0.000002 -0.465230
v -0.465230 -0.000002 0.465230
v 0.465230 0.023570 -0.465230
v 0.465230 0.023570 0.465230
v -0.465230 0.023570 -0.465230
v -0.465230 0.023570 0.465230
vt 0.125000 0.500000
vt 0.375000 0.500000
vt 0.375000 0.500000
vt 0.125000 0.500000
vt 0.375000 0.500000
vt 0.125000 0.500000
vt 0.125000 0.750000
vt 0.125000 0.750000
vt 0.375000 0.750000
vt 0.375000 0.750000
vt 0.375000 0.750000
vt 0.125000 0.750000
vt 0.125000 0.500000
vt 0.125000 0.500000
vt 0.375000 0.500000
vt 0.375000 0.500000
vt 0.125000 0.500000
vt 0.375000 0.500000
vt 0.125000 0.750000
vt 0.125000 0.750000
vt 0.375000 0.750000
vt 0.375000 0.750000
vt 0.125000 0.750000
vt 0.375000 0.750000
vt 0.125000 0.500000
vt 0.125000 0.500000
vt 0.375000 0.500000
vt 0.375000 0.500000
vt 0.125000 0.500000
vt 0.375000 0.500000
vt 0.125000 0.750000
vt 0.375000 0.750000
vt 0.125000 0.750000
vt 0.375000 0.750000
vt 0.375000 0.500000
vt 0.125000 0.500000
vt 0.375000 0.500000
vt 0.125000 0.500000
vt 0.125000 0.750000
vt 0.125000 0.750000
vt 0.375000 0.750000
vt 0.375000 0.750000
vt 0.375000 0.750000
vt 0.125000 0.750000
vt 0.125000 0.500000
vt 0.375000 0.500000
vt 0.125000 0.500000
vt 0.375000 0.500000
vt 0.125000 0.500000
vt 0.125000 0.750000
vt 0.125000 0.750000
vt 0.375000 0.750000
vt 0.375000 0.750000
vt 0.125000 0.750000
vt 0.125000 0.500000
vt 0.375000 0.500000
vt 0.375000 0.500000
vt 0.125000 0.500000
vt 0.375000 0.500000
vt 0.125000 0.750000
vt 0.375000 0.750000
vt 0.375000 0.750000
vt 0.125000 0.750000
vt 0.375000 0.750000
vn 1.0000 0.0000 -0.0000
vn 0.0000 0.0000 1.0000
vn 0.0000 0.0000 -1.0000
vn 0.0000 -1.0000 0.0000
vn 0.0000 1.0000 0.0000
vn -1.0000 0.0000 -0.0000
usemtl Wood
s off
f 48/1/1 37/2/1 4/3/1 3/4/1
f 3/4/2 4/3/2 8/5/2 7/6/2
f 47/7/1 48/1/1 3/4/1 1/8/1
f 36/9/1 47/7/1 1/8/1 2/10/1
f 37/2/1 36/9/1 2/10/1 4/3/1
f 7/6/1 8/5/1 6/11/1 5/12/1
f 2/10/3 1/8/3 5/12/3 6/11/3
f 4/3/4 2/10/4 6/11/4 8/5/4
f 1/8/5 3/4/5 7/6/5 5/12/5
f 46/13/6 12/14/6 13/15/6 35/16/6
f 12/14/2 16/17/2 17/18/2 13/15/2
f 9/19/6 10/20/6 12/14/6 46/13/6
f 18/21/6 11/22/6 10/20/6 9/19/6
f 35/16/6 13/15/6 11/22/6 18/21/6
f 16/17/6 14/23/6 15/24/6 17/18/6
f 11/22/3 15/24/3 14/23/3 10/20/3
f 13/15/4 17/18/4 15/24/4 11/22/4
f 10/20/5 14/23/5 16/17/5 12/14/5
f 9/25/2 21/26/2 22/27/2 18/28/2
f 21/26/1 25/29/1 26/30/1 22/27/1
f 47/7/2 19/31/2 21/26/2 9/25/2
f 36/9/2 20/32/2 19/31/2 47/7/2
f 18/28/2 22/27/2 20/32/2 36/9/2
f 25/29/2 23/33/2 24/34/2 26/30/2
f 20/32/6 24/34/6 23/33/6 19/31/6
f 22/27/4 26/30/4 24/34/4 20/32/4
f 19/31/5 23/33/5 25/29/5 21/26/5
f 46/13/3 35/16/3 30/35/3 29/36/3
f 29/36/1 30/35/1 34/37/1 33/38/1
f 48/39/3 46/13/3 29/36/3 27/40/3
f 37/41/3 48/39/3 27/40/3 28/42/3
f 35/16/3 37/41/3 28/42/3 30/35/3
f 33/38/3 34/37/3 32/43/3 31/44/3
f 28/42/6 27/40/6 31/44/6 32/43/6
f 30/35/4 28/42/4 32/43/4 34/37/4
f 27/40/5 29/36/5 33/38/5 31/44/5
f 35/45/5 18/28/5 41/46/5 40/47/5
f 40/47/1 41/46/1 45/48/1 44/49/1
f 37/50/5 35/45/5 40/47/5 38/51/5
f 36/9/5 37/50/5 38/51/5 39/52/5
f 18/28/5 36/9/5 39/52/5 41/46/5
f 44/49/5 45/48/5 43/53/5 42/54/5
f 39/52/6 38/51/6 42/54/6 43/53/6
f 41/46/3 39/52/3 43/53/3 45/48/3
f 38/51/2 40/47/2 44/49/2 42/54/2
f 46/13/4 51/55/4 52/56/4 9/57/4
f 51/55/1 55/58/1 56/59/1 52/56/1
f 48/39/4 49/60/4 51/55/4 46/13/4
f 47/61/4 50/62/4 49/60/4 48/39/4
f 9/57/4 52/56/4 50/62/4 47/61/4
f 55/58/4 53/63/4 54/64/4 56/59/4
f 50/62/6 54/64/6 53/63/6 49/60/6
f 52/56/3 56/59/3 54/64/3 50/62/3
f 49/60/2 53/63/2 55/58/2 51/55/2
