# Blender v2.80 (sub 60) OBJ File: 'fireaxe.blend'
# www.blender.org
mtllib fireaxe.mtl
o Cube
v 0.000000 0.000000 -0.026085
v -0.010985 0.000000 -0.018445
v -0.015535 0.000000 -0.000000
v -0.010985 0.000000 0.018445
v 0.000000 0.000000 0.026085
v 0.010985 0.000000 0.018445
v 0.015535 0.000000 -0.000000
v 0.010985 0.000000 -0.018445
v 0.000000 0.097146 -0.035490
v -0.010985 0.097146 -0.027850
v -0.015535 0.097146 -0.009406
v -0.010985 0.097146 0.009039
v 0.000000 0.097146 0.016679
v 0.010985 0.097146 0.009039
v 0.015535 0.097146 -0.009406
v 0.010985 0.097146 -0.027850
v 0.000000 0.395033 -0.024486
v -0.010985 0.395033 -0.016846
v -0.015535 0.395033 0.001599
v -0.010985 0.395033 0.020044
v 0.000000 0.395033 0.027684
v 0.010985 0.395033 0.020044
v 0.015535 0.395033 0.001599
v 0.010985 0.395033 -0.016846
v 0.000000 0.687141 -0.035827
v -0.010985 0.687141 -0.026133
v -0.015535 0.687141 -0.002729
v -0.010985 0.687141 0.020676
v 0.000000 0.687141 0.030370
v 0.010985 0.687141 0.020676
v 0.015535 0.687141 -0.002729
v 0.010985 0.687141 -0.026133
v -0.017274 0.675715 0.057714
v -0.017274 0.723648 0.057714
v -0.017274 0.669039 -0.057714
v -0.017274 0.723648 -0.057714
v 0.017274 0.675715 0.057714
v 0.017274 0.723648 0.057714
v 0.017274 0.669039 -0.057714
v 0.017274 0.723648 -0.057714
v -0.017274 0.782921 0.057714
v -0.017274 0.794473 -0.057714
v 0.017274 0.782921 0.057714
v 0.017274 0.794473 -0.057714
v 0.004278 0.723648 -0.163560
v 0.000000 0.782921 0.138536
v 0.000000 0.748215 -0.145194
v 0.000000 0.723648 0.153542
v 0.000000 0.669039 0.138536
v 0.000000 0.799182 -0.023990
v -0.008848 0.799182 -0.016182
v -0.012512 0.799182 0.002668
v -0.008848 0.799182 0.021518
v 0.000000 0.799182 0.029326
v 0.008848 0.799182 0.021518
v 0.012512 0.799182 0.002668
v 0.008848 0.799182 -0.016182
vt 0.000000 0.000000
vt 0.000000 0.000000
vt 0.000000 0.000000
vt 0.000000 0.000000
vt 0.000000 0.000000
vt 0.000000 0.000000
vt 0.000000 0.000000
vt 0.000000 0.000000
vt 0.000000 0.000000
vt 0.000000 0.000000
vt 0.000000 0.000000
vt 0.000000 0.000000
vt 0.000000 0.000000
vt 0.000000 0.000000
vt 0.000000 0.000000
vt 0.000000 0.000000
vt 0.000000 0.000000
vt 0.000000 0.000000
vt 0.000000 0.000000
vt 0.000000 0.000000
vt 0.000000 0.000000
vt 0.000000 0.000000
vt 0.000000 0.000000
vt 0.000000 0.000000
vt 0.000000 0.000000
vt 0.000000 0.000000
vt 0.000000 0.000000
vt 0.000000 0.000000
vt 0.000000 0.000000
vt 0.000000 0.000000
vt 0.000000 0.000000
vt 0.000000 0.000000
vt 0.000000 0.000000
vt 0.000000 0.000000
vt 0.000000 0.000000
vt 0.000000 0.000000
vt 0.000000 0.000000
vt 0.000000 0.000000
vt 0.000000 0.000000
vt 0.000000 0.000000
vt 0.375000 0.000000
vt 0.625000 0.250000
vt 0.375000 0.250000
vt 0.375000 0.500000
vt 0.625000 0.500000
vt 0.375000 0.750000
vt 0.625000 0.750000
vt 0.375000 0.873089
vt 0.251911 0.750000
vt 0.125000 0.750000
vt 0.625000 1.000000
vt 0.625000 0.867604
vt 0.625000 1.000000
vt 0.875000 0.750000
vt 0.742604 0.750000
vt 0.625000 0.750000
vt 0.625000 0.250000
vt 0.625000 0.250000
vt 0.625000 0.000000
vt 0.625000 0.250000
vt 0.625000 0.500000
vt 0.625000 0.500000
vt 0.625000 0.500000
vt 0.875000 0.500000
vt 0.875000 0.500000
vt 0.375000 1.000000
vt 0.625000 0.000000
vt 0.625000 0.874089
vt 0.125000 0.500000
vn 0.0000 -1.0000 0.0000
vn 0.5707 -0.0303 0.8206
vn -0.9706 -0.0232 -0.2394
vn -0.9706 0.0232 0.2394
vn -0.5692 -0.0792 -0.8184
vn -0.5692 0.0792 0.8184
vn 0.9709 -0.0035 -0.2395
vn -0.9709 -0.0088 0.2395
vn -0.5707 0.0303 -0.8206
vn 0.5707 0.0303 -0.8206
vn 0.9709 -0.0088 0.2395
vn -0.5707 -0.0303 0.8206
vn -0.9709 0.0088 -0.2395
vn 0.9709 0.0088 -0.2395
vn -0.6596 0.0790 -0.7474
vn 0.6617 -0.0069 0.7498
vn -0.9816 0.0028 0.1908
vn -0.6614 -0.0291 -0.7495
vn 0.5708 -0.0261 -0.8207
vn 0.9709 -0.0005 0.2395
vn -0.5710 -0.0018 0.8210
vn -0.9816 -0.0061 -0.1908
vn 0.0000 1.0000 0.0000
vn 0.6596 0.0790 -0.7474
vn 0.9815 0.0173 0.1908
vn -0.6617 0.0070 0.7498
vn -0.9810 0.0357 -0.1907
vn 0.9810 0.0357 -0.1907
vn 0.6617 0.0070 0.7498
vn -0.9815 0.0173 0.1908
vn 0.9816 -0.0061 -0.1908
vn 0.5710 -0.0018 0.8210
vn -0.9709 -0.0005 0.2395
vn -0.5708 -0.0261 -0.8207
vn 0.6614 -0.0291 -0.7495
vn 0.9816 0.0028 0.1908
vn -0.6617 -0.0069 0.7498
vn -0.9709 -0.0035 -0.2395
vn -1.0000 0.0000 0.0000
vn 0.0000 0.0000 -1.0000
vn 1.0000 0.0000 0.0000
vn 0.9779 0.0000 0.2090
vn 0.0000 -0.9966 -0.0823
vn -0.9779 0.0000 0.2090
vn -0.9797 -0.0215 -0.1995
vn 0.9811 0.0000 -0.1937
vn 0.0000 0.8840 -0.4675
vn 0.9830 -0.0487 0.1772
vn 0.0000 -0.9983 0.0577
vn -0.9831 0.0449 0.1772
vn 0.0000 0.9950 0.0996
vn -0.9811 0.0000 -0.1937
vn 0.9597 0.2552 -0.1178
vn 0.9831 0.0449 0.1772
vn -0.9830 -0.0487 0.1772
vn 0.9706 -0.0232 -0.2394
vn 0.5692 0.0792 0.8184
vn 0.5692 -0.0792 -0.8184
vn 0.9706 0.0232 0.2394
usemtl Wood
s off
f 3/1/1 6/2/1 4/3/1
f 13/4/2 22/5/2 21/6/2
f 2/7/3 11/8/3 10/9/3
f 3/1/4 12/10/4 11/8/4
f 1/11/5 10/9/5 9/12/5
f 4/3/6 13/4/6 12/10/6
f 24/13/7 31/14/7 23/15/7
f 12/10/8 19/16/8 11/8/8
f 10/9/9 17/17/9 9/12/9
f 16/18/10 17/17/10 24/13/10
f 14/19/11 23/15/11 22/5/11
f 13/4/12 20/20/12 12/10/12
f 11/8/13 18/21/13 10/9/13
f 15/22/14 24/13/14 23/15/14
f 26/23/15 50/24/15 25/25/15
f 21/6/16 30/26/16 29/27/16
f 19/16/17 28/28/17 27/29/17
f 17/17/18 26/23/18 25/25/18
f 17/17/19 32/30/19 24/13/19
f 23/15/20 30/26/20 22/5/20
f 21/6/21 28/28/21 20/20/21
f 18/21/22 27/29/22 26/23/22
f 56/31/23 57/32/23 51/33/23
f 32/30/24 50/24/24 57/32/24
f 30/26/25 56/31/25 55/34/25
f 29/27/26 53/35/26 28/28/26
f 27/29/27 51/33/27 26/23/27
f 31/14/28 57/32/28 56/31/28
f 29/27/29 55/34/29 54/36/29
f 28/28/30 52/37/30 27/29/30
f 3/1/1 2/7/1 7/38/1
f 2/7/1 1/11/1 8/39/1
f 7/38/1 2/7/1 8/39/1
f 7/38/1 6/2/1 3/1/1
f 6/2/1 5/40/1 4/3/1
f 13/4/2 14/19/2 22/5/2
f 2/7/3 3/1/3 11/8/3
f 3/1/4 4/3/4 12/10/4
f 1/11/5 2/7/5 10/9/5
f 4/3/6 5/40/6 13/4/6
f 24/13/31 32/30/31 31/14/31
f 12/10/8 20/20/8 19/16/8
f 10/9/9 18/21/9 17/17/9
f 16/18/10 9/12/10 17/17/10
f 14/19/11 15/22/11 23/15/11
f 13/4/12 21/6/12 20/20/12
f 11/8/13 19/16/13 18/21/13
f 15/22/14 16/18/14 24/13/14
f 26/23/15 51/33/15 50/24/15
f 21/6/32 22/5/32 30/26/32
f 19/16/33 20/20/33 28/28/33
f 17/17/34 18/21/34 26/23/34
f 17/17/35 25/25/35 32/30/35
f 23/15/36 31/14/36 30/26/36
f 21/6/37 29/27/37 28/28/37
f 18/21/38 19/16/38 27/29/38
f 50/24/23 51/33/23 57/32/23
f 51/33/23 52/37/23 56/31/23
f 52/37/23 53/35/23 56/31/23
f 53/35/23 54/36/23 55/34/23
f 56/31/23 53/35/23 55/34/23
f 32/30/24 25/25/24 50/24/24
f 30/26/25 31/14/25 56/31/25
f 29/27/26 54/36/26 53/35/26
f 27/29/27 52/37/27 51/33/27
f 31/14/28 32/30/28 57/32/28
f 29/27/29 30/26/29 55/34/29
f 28/28/30 53/35/30 52/37/30
usemtl RedMetal
f 33/41/39 36/42/39 35/43/39
f 36/42/40 39/44/40 35/43/40
f 40/45/41 37/46/41 39/44/41
f 38/47/42 49/48/42 37/46/42
f 37/46/43 49/49/43 33/50/43
f 34/51/44 46/52/44 41/53/44
f 41/54/23 46/55/23 43/56/23
f 36/42/45 47/57/45 45/58/45
f 40/45/41 43/56/41 38/47/41
f 36/42/39 41/59/39 42/60/39
f 40/45/1 36/42/1 45/61/1
f 40/45/46 47/62/46 44/63/46
f 42/64/47 44/63/47 47/65/47
f 46/52/42 38/47/42 43/56/42
f 49/48/44 34/51/44 33/66/44
f 33/41/39 34/67/39 36/42/39
f 36/42/40 40/45/40 39/44/40
f 40/45/41 38/47/41 37/46/41
f 38/47/48 48/68/48 49/48/48
f 33/50/49 35/69/49 39/44/49
f 39/44/49 37/46/49 33/50/49
f 34/51/50 48/68/50 46/52/50
f 43/56/51 44/63/51 42/64/51
f 42/64/51 41/54/51 43/56/51
f 36/42/52 42/60/52 47/57/52
f 40/45/41 44/63/41 43/56/41
f 36/42/39 34/67/39 41/59/39
f 40/45/53 45/61/53 47/62/53
f 46/52/54 48/68/54 38/47/54
f 49/48/55 48/68/55 34/51/55
usemtl Rubber
f 8/39/56 15/22/56 7/38/56
f 6/2/57 13/4/57 5/40/57
f 1/11/58 16/18/58 8/39/58
f 7/38/59 14/19/59 6/2/59
f 8/39/56 16/18/56 15/22/56
f 6/2/57 14/19/57 13/4/57
f 1/11/58 9/12/58 16/18/58
f 7/38/59 15/22/59 14/19/59
