# Blender v2.80 (sub 60) OBJ File: 'GraveStone.blend'
# www.blender.org
mtllib GraveStone.mtl
o Cube_Cube.001
v -0.287155 -0.408537 0.059737
v -0.287155 0.424155 0.059737
v -0.287155 -0.408537 -0.059737
v -0.287155 0.424155 -0.059737
v 0.287155 -0.408537 0.059737
v 0.287155 0.424155 0.059737
v 0.287155 -0.408537 -0.059737
v 0.287155 0.424155 -0.059737
v -0.182953 0.524892 0.059737
v -0.182953 0.524892 -0.059737
v 0.182953 0.524892 0.059737
v 0.182953 0.524892 -0.059737
v -0.052853 0.581827 0.017257
v -0.052853 0.581827 -0.017257
v 0.052853 0.581827 0.017257
v 0.052853 0.581827 -0.017257
vt 0.625000 0.000000
vt 0.375000 0.250000
vt 0.375000 0.000000
vt 0.625000 0.250000
vt 0.375000 0.500000
vt 0.625000 0.500000
vt 0.375000 0.750000
vt 0.625000 0.750000
vt 0.375000 1.000000
vt 0.625000 0.750000
vt 0.625000 0.000000
vt 0.625000 0.250000
vt 0.625000 0.250000
vt 0.625000 1.000000
vt 0.625000 1.000000
vt 0.625000 0.500000
vt 0.875000 0.500000
vt 0.625000 0.750000
vt 0.625000 0.500000
vt 0.625000 1.000000
vt 0.625000 0.000000
vt 0.875000 0.750000
vn -1.0000 0.0000 0.0000
vn 0.0000 0.0000 -1.0000
vn 1.0000 0.0000 0.0000
vn 0.0000 0.0000 1.0000
vn 0.6951 0.7190 0.0000
vn -0.4009 0.9161 0.0000
vn -0.6951 0.7190 0.0000
vn 0.0000 1.0000 0.0000
vn 0.0000 0.5980 0.8015
vn 0.0000 0.5980 -0.8015
vn 0.4009 0.9161 0.0000
usemtl Stone
s off
f 2/1/1 3/2/1 1/3/1
f 4/4/2 7/5/2 3/2/2
f 8/6/3 5/7/3 7/5/3
f 6/8/4 1/9/4 5/7/4
f 8/6/5 11/10/5 6/8/5
f 9/11/6 14/12/6 10/13/6
f 2/1/7 10/13/7 4/4/7
f 6/8/4 9/14/4 2/15/4
f 4/4/2 12/16/2 8/6/2
f 14/17/8 15/18/8 16/19/8
f 11/10/9 13/20/9 9/14/9
f 10/13/10 16/19/10 12/16/10
f 11/10/11 16/19/11 15/18/11
f 2/1/1 4/4/1 3/2/1
f 4/4/2 8/6/2 7/5/2
f 8/6/3 6/8/3 5/7/3
f 6/8/4 2/15/4 1/9/4
f 8/6/5 12/16/5 11/10/5
f 9/11/6 13/21/6 14/12/6
f 2/1/7 9/11/7 10/13/7
f 6/8/4 11/10/4 9/14/4
f 4/4/2 10/13/2 12/16/2
f 14/17/8 13/22/8 15/18/8
f 11/10/9 15/18/9 13/20/9
f 10/13/10 14/12/10 16/19/10
f 11/10/11 12/16/11 16/19/11
