# Blender v2.80 (sub 60) OBJ File: 'Grave.blend'
# www.blender.org
mtllib Grave.mtl
o Cube_Cube.001
v 0.300000 0.182317 -1.000000
v 0.300000 -0.417683 -1.000000
v 0.300000 0.182317 1.000000
v 0.300000 -0.417683 1.000000
v -0.300000 0.182317 -1.000000
v -0.300000 -0.417683 -1.000000
v -0.300000 0.182317 1.000000
v -0.300000 -0.417683 1.000000
v -0.287155 0.163452 0.995265
v -0.287155 0.530198 0.995265
v -0.287155 0.163452 0.875791
v -0.287155 0.530198 0.875791
v 0.287155 0.163452 0.995265
v 0.287155 0.530198 0.995265
v 0.287155 0.163452 0.875791
v 0.287155 0.530198 0.875791
v -0.182953 0.630935 0.995265
v -0.182953 0.630935 0.875791
v 0.182953 0.630935 0.995265
v 0.182953 0.630935 0.875791
v -0.052853 0.687870 0.952785
v -0.052853 0.687870 0.918271
v 0.052853 0.687870 0.952785
v 0.052853 0.687870 0.918271
vt 0.625000 0.250000
vt 0.375000 0.500000
vt 0.375000 0.250000
vt 0.625000 0.500000
vt 0.375000 0.750000
vt 0.375000 0.500000
vt 0.625000 0.750000
vt 0.375000 1.000000
vt 0.375000 0.750000
vt 0.375000 0.500000
vt 0.125000 0.750000
vt 0.125000 0.500000
vt 0.875000 0.500000
vt 0.625000 0.750000
vt 0.625000 0.500000
vt 0.625000 0.000000
vt 0.375000 0.250000
vt 0.375000 0.000000
vt 0.625000 0.250000
vt 0.375000 0.500000
vt 0.625000 0.500000
vt 0.375000 0.750000
vt 0.625000 0.750000
vt 0.375000 1.000000
vt 0.625000 0.750000
vt 0.625000 0.000000
vt 0.625000 0.250000
vt 0.625000 0.250000
vt 0.625000 1.000000
vt 0.625000 1.000000
vt 0.625000 0.500000
vt 0.875000 0.500000
vt 0.625000 0.750000
vt 0.625000 0.500000
vt 0.625000 1.000000
vt 0.625000 0.500000
vt 0.625000 0.750000
vt 0.625000 1.000000
vt 0.375000 0.750000
vt 0.875000 0.750000
vt 0.625000 0.000000
vt 0.875000 0.750000
vn 0.0000 0.0000 -1.0000
vn -1.0000 0.0000 0.0000
vn 0.0000 0.0000 1.0000
vn 0.0000 1.0000 0.0000
vn 1.0000 0.0000 0.0000
vn 0.6951 0.7190 0.0000
vn -0.4009 0.9161 0.0000
vn -0.6951 0.7190 0.0000
vn 0.0000 0.5980 0.8015
vn 0.0000 0.5980 -0.8015
vn 0.4009 0.9161 0.0000
usemtl Stone
s off
f 5/1/1 2/2/1 6/3/1
f 7/4/2 6/5/2 8/6/2
f 3/7/3 8/8/3 4/9/3
f 5/10/4 3/11/4 1/12/4
f 1/13/5 4/14/5 2/15/5
f 10/16/2 11/17/2 9/18/2
f 12/19/1 15/20/1 11/17/1
f 16/21/5 13/22/5 15/20/5
f 14/23/3 9/24/3 13/22/3
f 16/21/6 19/25/6 14/23/6
f 17/26/7 22/27/7 18/28/7
f 10/16/8 18/28/8 12/19/8
f 14/23/3 17/29/3 10/30/3
f 12/19/1 20/31/1 16/21/1
f 22/32/4 23/33/4 24/34/4
f 19/25/9 21/35/9 17/29/9
f 18/28/10 24/34/10 20/31/10
f 19/25/11 24/34/11 23/33/11
f 5/1/1 1/36/1 2/2/1
f 7/4/2 5/37/2 6/5/2
f 3/7/3 7/38/3 8/8/3
f 5/10/4 7/39/4 3/11/4
f 1/13/5 3/40/5 4/14/5
f 10/16/2 12/19/2 11/17/2
f 12/19/1 16/21/1 15/20/1
f 16/21/5 14/23/5 13/22/5
f 14/23/3 10/30/3 9/24/3
f 16/21/6 20/31/6 19/25/6
f 17/26/7 21/41/7 22/27/7
f 10/16/8 17/26/8 18/28/8
f 14/23/3 19/25/3 17/29/3
f 12/19/1 18/28/1 20/31/1
f 22/32/4 21/42/4 23/33/4
f 19/25/9 23/33/9 21/35/9
f 18/28/10 22/27/10 24/34/10
f 19/25/11 20/31/11 24/34/11
