# Blender v2.80 (sub 45) OBJ File: 'Tree1.blend'
# www.blender.org
mtllib Tree1.mtl
o Cube
v 0.000000 -1.415476 -0.300000
v -0.212132 -1.415476 -0.212132
v -0.300000 -1.415476 0.000000
v -0.212132 -1.415476 0.212132
v 0.000000 -1.415476 0.300000
v 0.212132 -1.415476 0.212132
v 0.300000 -1.415476 -0.000000
v 0.212132 -1.415476 -0.212132
v 0.000000 1.184788 -0.300000
v -0.212132 1.184788 -0.212132
v -0.300000 1.184788 0.000000
v -0.212132 1.184788 0.212132
v 0.000000 1.184788 0.300000
v 0.212132 1.184788 0.212132
v 0.300000 1.184788 -0.000000
v 0.212132 1.184788 -0.212132
v 0.000000 3.465896 -0.442284
v -0.154880 3.465896 -0.378131
v -0.219034 3.465896 -0.223250
v -0.154880 3.465896 -0.068370
v 0.000000 3.465896 -0.004216
v 0.154880 3.465896 -0.068370
v 0.219034 3.465896 -0.223250
v 0.154880 3.465896 -0.378131
v 0.000243 5.329965 -0.328882
v -0.082026 5.329965 -0.294805
v -0.116103 5.329965 -0.212536
v -0.082026 5.329965 -0.130268
v 0.000243 5.329965 -0.096191
v 0.082511 5.329965 -0.130268
v 0.116588 5.329965 -0.212536
v 0.082511 5.329965 -0.294805
v 0.000000 3.566661 -0.212857
v 1.442473 4.668620 0.835149
v -0.550965 4.668620 1.482867
v -1.783007 4.668620 -0.212857
v -0.550965 4.668620 -1.908580
v 1.442473 4.668620 -1.260863
v 0.550965 6.451638 1.482867
v -1.442473 6.451638 0.835149
v -1.442473 6.451638 -1.260863
v 0.550965 6.451638 -1.908580
v 1.783007 6.451638 -0.212857
v 0.000000 7.553597 -0.212857
vt 0.000000 0.000000
vt 0.000000 0.000000
vt 0.000000 0.000000
vt 0.000000 0.000000
vt 0.000000 0.000000
vt 0.000000 0.000000
vt 0.000000 0.000000
vt 0.000000 0.000000
vt 0.000000 0.000000
vt 0.000000 0.000000
vt 0.000000 0.000000
vt 0.000000 0.000000
vt 0.000000 0.000000
vt 0.000000 0.000000
vt 0.000000 0.000000
vt 0.000000 0.000000
vt 0.000000 0.000000
vt 0.000000 0.000000
vt 0.000000 0.000000
vt 0.000000 0.000000
vt 0.000000 0.000000
vt 0.000000 0.000000
vt 0.000000 0.000000
vt 0.000000 0.000000
vt 0.000000 0.000000
vt 0.000000 0.000000
vt 0.000000 0.000000
vt 0.000000 0.000000
vt 0.000000 0.000000
vt 0.000000 0.000000
vt 0.000000 0.000000
vt 0.000000 0.000000
vt 0.818181 0.000000
vt 0.727272 0.157461
vt 0.909090 0.157461
vt 0.636363 0.000000
vt 0.545454 0.157461
vt 0.090909 0.000000
vt 0.000000 0.157461
vt 0.181818 0.157461
vt 0.272727 0.000000
vt 0.363636 0.157461
vt 0.454545 0.000000
vt 0.636363 0.314921
vt 0.818181 0.314921
vt 0.090909 0.314921
vt 0.272727 0.314921
vt 0.454545 0.314921
vt 1.000000 0.314921
vt 0.727272 0.472382
vt 0.909090 0.472382
vt 0.181818 0.472382
vt 0.363636 0.472382
vt 0.545454 0.472382
vn -0.3827 0.0000 -0.9239
vn 0.3827 0.0000 -0.9239
vn 0.9239 0.0000 0.3827
vn -0.3827 0.0000 0.9239
vn -0.9239 0.0000 -0.3827
vn 0.9239 0.0000 -0.3827
vn 0.3827 0.0000 0.9239
vn -0.9239 0.0000 0.3827
vn -0.3798 0.1223 0.9169
vn -0.9239 -0.0047 -0.3827
vn 0.9239 -0.0047 -0.3827
vn 0.3798 0.1223 0.9169
vn -0.9216 0.0701 0.3817
vn -0.3820 -0.0575 -0.9223
vn 0.3820 -0.0575 -0.9223
vn 0.9216 0.0701 0.3817
vn 0.3821 0.0561 -0.9224
vn 0.9228 0.0485 0.3822
vn -0.3823 0.0456 0.9229
vn -0.9226 0.0531 -0.3821
vn 0.9226 0.0529 -0.3821
vn 0.3823 0.0455 0.9229
vn -0.9228 0.0488 0.3822
vn -0.3821 0.0562 -0.9224
vn 0.1876 -0.7947 0.5774
vn 0.6071 -0.7947 0.0000
vn -0.4911 -0.7947 0.3568
vn -0.4911 -0.7947 -0.3568
vn 0.1876 -0.7947 -0.5774
vn 0.9822 -0.1876 0.0000
vn 0.3035 -0.1876 0.9342
vn -0.7946 -0.1876 0.5774
vn -0.7946 -0.1876 -0.5774
vn 0.3035 -0.1876 -0.9342
vn 0.7946 0.1876 0.5774
vn -0.3035 0.1876 0.9342
vn -0.9822 0.1876 0.0000
vn -0.3035 0.1876 -0.9342
vn 0.7946 0.1876 -0.5774
vn 0.4911 0.7947 0.3568
vn -0.1876 0.7947 0.5774
vn -0.6071 0.7947 0.0000
vn -0.1876 0.7947 -0.5774
vn 0.4911 0.7947 -0.3568
usemtl Wood
s off
f 2/1/1 10/2/1 9/3/1 1/4/1
f 1/4/2 9/3/2 16/5/2 8/6/2
f 7/7/3 15/8/3 14/9/3 6/10/3
f 5/11/4 13/12/4 12/13/4 4/14/4
f 3/15/5 11/16/5 10/2/5 2/1/5
f 8/6/6 16/5/6 15/8/6 7/7/6
f 6/10/7 14/9/7 13/12/7 5/11/7
f 4/14/8 12/13/8 11/16/8 3/15/8
f 13/12/9 21/17/9 20/18/9 12/13/9
f 11/16/10 19/19/10 18/20/10 10/2/10
f 16/5/11 24/21/11 23/22/11 15/8/11
f 14/9/12 22/23/12 21/17/12 13/12/12
f 12/13/13 20/18/13 19/19/13 11/16/13
f 10/2/14 18/20/14 17/24/14 9/3/14
f 9/3/15 17/24/15 24/21/15 16/5/15
f 15/8/16 23/22/16 22/23/16 14/9/16
f 17/24/17 25/25/17 32/26/17 24/21/17
f 23/22/18 31/27/18 30/28/18 22/23/18
f 21/17/19 29/29/19 28/30/19 20/18/19
f 19/19/20 27/31/20 26/32/20 18/20/20
f 24/21/21 32/26/21 31/27/21 23/22/21
f 22/23/22 30/28/22 29/29/22 21/17/22
f 20/18/23 28/30/23 27/31/23 19/19/23
f 18/20/24 26/32/24 25/25/24 17/24/24
usemtl Leaves
f 33/33/25 34/34/25 35/35/25
f 34/34/26 33/36/26 38/37/26
f 33/38/27 35/39/27 36/40/27
f 33/41/28 36/40/28 37/42/28
f 33/43/29 37/42/29 38/37/29
f 34/34/30 38/37/30 43/44/30
f 35/35/31 34/34/31 39/45/31
f 36/40/32 35/39/32 40/46/32
f 37/42/33 36/40/33 41/47/33
f 38/37/34 37/42/34 42/48/34
f 34/34/35 43/44/35 39/45/35
f 35/35/36 39/45/36 40/49/36
f 36/40/37 40/46/37 41/47/37
f 37/42/38 41/47/38 42/48/38
f 38/37/39 42/48/39 43/44/39
f 39/45/40 43/44/40 44/50/40
f 40/49/41 39/45/41 44/51/41
f 41/47/42 40/46/42 44/52/42
f 42/48/43 41/47/43 44/53/43
f 43/44/44 42/48/44 44/54/44
