# Blender v2.80 (sub 57) OBJ File: 'WaterTower.blend'
# www.blender.org
mtllib WaterTower.mtl
o Road_End_RoadEnd
v -5.000000 0.200000 -5.000000
v -5.000000 -0.300000 -5.000000
v -5.000000 0.200000 5.000000
v -5.000000 -0.300000 5.000000
v 5.000000 -0.300000 5.000000
v 5.000000 0.200000 5.000000
v 5.000000 -0.300000 -5.000000
v 5.000000 0.200000 -5.000000
v 0.000000 16.619312 -3.025526
v 0.000000 22.670370 -3.025526
v 1.512763 16.619312 -2.620183
v 1.512763 22.670370 -2.620183
v 2.620182 16.619312 -1.512763
v 2.620182 22.670370 -1.512763
v 3.025525 16.619312 -0.000001
v 3.025525 22.670370 -0.000001
v 2.620182 16.619312 1.512762
v 2.620182 22.670370 1.512762
v 1.512763 16.619312 2.620181
v 1.512763 22.670370 2.620181
v 0.000001 16.619312 3.025525
v 0.000001 22.670370 3.025525
v -1.512762 16.619312 2.620181
v -1.512762 22.670370 2.620181
v -2.620181 16.619312 1.512763
v -2.620181 22.670370 1.512763
v -3.025525 16.619312 0.000001
v -3.025525 22.670370 0.000001
v -2.620183 16.619312 -1.512762
v -2.620183 22.670370 -1.512762
v -1.512764 16.619312 -2.620181
v -1.512764 22.670370 -2.620181
v 0.000000 24.284611 -0.000000
v 4.091153 -0.018624 -4.867241
v 2.437282 16.358955 -2.508044
v 4.091153 -0.018624 -4.152465
v 3.443839 16.280434 -3.443839
v 3.443839 16.722759 -3.443839
v 3.443839 16.280434 3.443839
v 3.443839 16.722759 3.443839
v -3.443839 16.280434 -3.443839
v -3.443839 16.722759 -3.443839
v -3.443839 16.280434 3.443839
v -3.443839 16.722759 3.443839
v 2.437282 16.358955 -3.222820
v 4.805928 -0.018624 -4.152465
v 3.152057 16.358955 -2.508044
v 4.805928 -0.018624 -4.867241
v 3.152057 16.358955 -3.222820
v -4.091158 -0.018624 -4.867241
v -2.437287 16.358955 -2.508044
v -4.091158 -0.018624 -4.152465
v -2.437287 16.358955 -3.222820
v -4.805933 -0.018624 -4.152465
v -3.152062 16.358955 -2.508044
v -4.805933 -0.018624 -4.867241
v -3.152062 16.358955 -3.222820
v -4.091158 -0.018624 4.867238
v -2.437287 16.358955 2.508041
v -4.091158 -0.018624 4.152462
v -2.437287 16.358955 3.222817
v -4.805933 -0.018624 4.152462
v -3.152062 16.358955 2.508041
v -4.805933 -0.018624 4.867238
v -3.152062 16.358955 3.222817
v 4.091158 -0.018624 4.867238
v 2.437287 16.358955 2.508041
v 4.091158 -0.018624 4.152462
v 2.437287 16.358955 3.222817
v 4.805933 -0.018624 4.152462
v 3.152062 16.358955 2.508041
v 4.805933 -0.018624 4.867238
v 3.152062 16.358955 3.222817
v 0.000000 0.000000 -0.499657
v -0.432716 0.000000 -0.249828
v -0.432716 0.000000 0.249828
v 0.000000 0.000000 0.499657
v 0.432716 0.000000 0.249828
v 0.432716 0.000000 -0.249828
v 0.000000 16.565626 -0.499657
v -0.432716 16.565626 -0.249828
v -0.432716 16.565626 0.249828
v 0.000000 16.565626 0.499657
v 0.432716 16.565626 0.249828
v 0.432716 16.565626 -0.249828
vt 0.625000 0.000000
vt 0.375000 0.250000
vt 0.375000 0.000000
vt 0.625000 0.250000
vt 0.375000 0.500000
vt 0.375000 0.250000
vt 0.625000 0.750000
vt 0.375000 1.000000
vt 0.375000 0.750000
vt 0.375000 0.500000
vt 0.125000 0.750000
vt 0.125000 0.500000
vt 0.875000 0.500000
vt 0.625000 0.750000
vt 0.625000 0.500000
vt 0.625000 0.250000
vt 0.625000 0.500000
vt 0.625000 1.000000
vt 0.375000 0.750000
vt 0.875000 0.750000
vt 1.000000 1.000000
vt 0.916667 0.500000
vt 1.000000 0.500000
vt 0.916667 1.000000
vt 0.833333 0.500000
vt 0.833333 1.000000
vt 0.750000 0.500000
vt 0.750000 1.000000
vt 0.666667 0.500000
vt 0.666667 1.000000
vt 0.583333 0.500000
vt 0.583333 1.000000
vt 0.500000 0.500000
vt 0.500000 1.000000
vt 0.416667 0.500000
vt 0.416667 1.000000
vt 0.333333 0.500000
vt 0.333333 1.000000
vt 0.250000 0.500000
vt 0.250000 1.000000
vt 0.166667 0.500000
vt 0.166667 1.000000
vt 0.083333 0.500000
vt 0.083333 1.000000
vt 0.000000 0.500000
vt 0.000000 1.000000
vt 0.583333 1.000000
vt 0.666667 1.000000
vt 0.000000 1.000000
vt 0.916667 1.000000
vt 0.750000 1.000000
vt 0.083333 1.000000
vt 0.833333 1.000000
vt 0.166667 1.000000
vt 0.250000 1.000000
vt 0.333333 1.000000
vt 0.416667 1.000000
vt 0.500000 1.000000
vt 0.375000 0.000000
vt 0.625000 0.250000
vt 0.375000 0.250000
vt 0.375000 0.750000
vt 0.625000 0.500000
vt 0.375000 0.500000
vt 0.625000 0.500000
vt 0.375000 0.750000
vt 0.375000 0.500000
vt 0.625000 0.750000
vt 0.375000 1.000000
vt 0.375000 0.750000
vt 0.125000 0.500000
vt 0.375000 0.750000
vt 0.125000 0.750000
vt 0.375000 0.250000
vt 0.625000 0.000000
vt 0.375000 0.000000
vt 0.375000 0.500000
vt 0.625000 0.250000
vt 0.375000 0.250000
vt 0.375000 0.750000
vt 0.625000 0.500000
vt 0.375000 0.500000
vt 0.375000 1.000000
vt 0.625000 0.750000
vt 0.375000 0.750000
vt 0.125000 0.750000
vt 0.375000 0.500000
vt 0.125000 0.500000
vt 0.625000 0.750000
vt 0.875000 0.500000
vt 0.625000 0.500000
vt 0.375000 0.000000
vt 0.625000 0.250000
vt 0.625000 0.000000
vt 0.375000 1.000000
vt 0.625000 0.750000
vt 0.375000 0.750000
vt 0.125000 0.500000
vt 0.375000 0.750000
vt 0.375000 0.500000
vt 0.625000 0.500000
vt 0.375000 0.750000
vt 0.375000 0.500000
vt 0.375000 0.000000
vt 0.625000 0.250000
vt 0.375000 0.250000
vt 0.625000 0.750000
vt 0.375000 1.000000
vt 0.375000 0.750000
vt 0.125000 0.500000
vt 0.375000 0.750000
vt 0.125000 0.750000
vt 0.375000 0.750000
vt 0.625000 0.500000
vt 0.375000 0.500000
vt 0.375000 0.000000
vt 0.625000 0.250000
vt 0.625000 0.000000
vt 0.375000 1.000000
vt 0.625000 0.750000
vt 0.375000 0.750000
vt 0.125000 0.500000
vt 0.375000 0.750000
vt 0.375000 0.500000
vt 0.000000 0.000000
vt 0.000000 0.000000
vt 0.000000 0.000000
vt 0.000000 0.000000
vt 0.000000 0.000000
vt 0.000000 0.000000
vt 0.000000 0.000000
vt 0.000000 0.000000
vt 0.000000 0.000000
vt 0.000000 0.000000
vt 0.000000 0.000000
vt 0.000000 0.000000
vt 0.625000 0.000000
vt 0.625000 0.750000
vt 0.625000 0.750000
vt 0.625000 1.000000
vt 0.375000 0.500000
vt 0.625000 0.250000
vt 0.625000 0.500000
vt 0.625000 0.750000
vt 0.625000 1.000000
vt 0.375000 0.750000
vt 0.875000 0.750000
vt 0.375000 0.250000
vt 0.625000 1.000000
vt 0.125000 0.750000
vt 0.625000 0.750000
vt 0.625000 0.000000
vt 0.625000 1.000000
vt 0.375000 0.500000
vt 0.625000 0.750000
vt 0.375000 0.250000
vt 0.625000 1.000000
vt 0.125000 0.750000
vn 0.0000 0.0000 -1.0000
vn -1.0000 0.0000 0.0000
vn 1.0000 0.0000 0.0000
vn 0.0000 0.0000 1.0000
vn 0.0000 1.0000 0.0000
vn 0.2588 0.0000 -0.9659
vn 0.7071 0.0000 -0.7071
vn 0.9659 0.0000 -0.2588
vn 0.9659 0.0000 0.2588
vn 0.7071 0.0000 0.7071
vn 0.2588 0.0000 0.9659
vn -0.2588 0.0000 0.9659
vn -0.7071 0.0000 0.7071
vn -0.9659 0.0000 0.2588
vn -0.9659 0.0000 -0.2588
vn -0.7071 0.0000 -0.7071
vn -0.2588 0.0000 -0.9659
vn 0.3419 0.8753 0.3419
vn 0.4670 0.8753 0.1251
vn -0.1251 0.8753 -0.4670
vn 0.1251 0.8753 -0.4670
vn 0.4670 0.8753 -0.1251
vn -0.3419 0.8753 -0.3419
vn 0.3419 0.8753 -0.3419
vn -0.4670 0.8753 -0.1251
vn -0.4670 0.8753 0.1251
vn -0.3419 0.8753 0.3419
vn -0.1251 0.8753 0.4670
vn 0.1251 0.8753 0.4670
vn -0.9949 -0.1005 0.0000
vn 0.0000 -0.0999 0.9950
vn 0.9949 0.1005 0.0000
vn 0.0000 0.0999 -0.9950
vn 0.0000 -1.0000 0.0000
vn 0.9949 -0.1005 0.0000
vn -0.9949 0.1005 0.0000
vn 0.0000 -0.0999 -0.9950
vn 0.0000 0.0999 0.9950
vn 0.5000 0.0000 -0.8660
vn 0.5000 0.0000 0.8660
vn -0.5000 0.0000 0.8660
vn -0.5000 0.0000 -0.8660
usemtl Concrete
s off
f 1/1/1 7/2/1 2/3/1
f 3/4/2 2/5/2 4/6/2
f 8/7/3 5/8/3 7/9/3
f 6/10/4 4/11/4 5/12/4
f 1/13/5 6/14/5 8/15/5
f 1/1/1 8/16/1 7/2/1
f 3/4/2 1/17/2 2/5/2
f 8/7/3 6/18/3 5/8/3
f 6/10/4 3/19/4 4/11/4
f 1/13/5 3/20/5 6/14/5
usemtl White
f 10/21/6 11/22/6 9/23/6
f 12/24/7 13/25/7 11/22/7
f 14/26/8 15/27/8 13/25/8
f 16/28/9 17/29/9 15/27/9
f 18/30/10 19/31/10 17/29/10
f 20/32/11 21/33/11 19/31/11
f 22/34/12 23/35/12 21/33/12
f 24/36/13 25/37/13 23/35/13
f 26/38/14 27/39/14 25/37/14
f 28/40/15 29/41/15 27/39/15
f 30/42/16 31/43/16 29/41/16
f 32/44/17 9/45/17 31/43/17
f 10/21/6 12/24/6 11/22/6
f 12/24/7 14/26/7 13/25/7
f 14/26/8 16/28/8 15/27/8
f 16/28/9 18/30/9 17/29/9
f 18/30/10 20/32/10 19/31/10
f 20/32/11 22/34/11 21/33/11
f 22/34/12 24/36/12 23/35/12
f 24/36/13 26/38/13 25/37/13
f 26/38/14 28/40/14 27/39/14
f 28/40/15 30/42/15 29/41/15
f 30/42/16 32/44/16 31/43/16
f 32/44/17 10/46/17 9/45/17
usemtl Black
f 20/32/18 18/30/18 33/47/18
f 18/30/19 16/28/19 33/48/19
f 10/46/20 32/44/20 33/49/20
f 12/24/21 10/21/21 33/50/21
f 16/28/22 14/26/22 33/51/22
f 32/44/23 30/42/23 33/52/23
f 14/26/24 12/24/24 33/53/24
f 30/42/25 28/40/25 33/54/25
f 28/40/26 26/38/26 33/55/26
f 26/38/27 24/36/27 33/56/27
f 24/36/28 22/34/28 33/57/28
f 22/34/29 20/32/29 33/58/29
usemtl RedMetal
f 36/59/30 45/60/30 34/61/30
f 52/62/31 55/63/31 54/64/31
f 47/65/31 36/66/31 46/67/31
f 49/68/32 46/69/32 48/70/32
f 34/71/33 49/72/33 48/73/33
f 39/74/34 41/75/34 37/76/34
f 44/77/5 38/78/5 42/79/5
f 44/80/4 39/81/4 40/82/4
f 40/83/3 37/84/3 38/85/3
f 38/86/1 41/87/1 42/88/1
f 42/89/2 43/90/2 44/91/2
f 52/92/35 53/93/35 51/94/35
f 54/95/36 57/96/36 56/97/36
f 50/98/33 57/99/33 53/100/33
f 63/101/37 60/102/37 62/103/37
f 60/104/35 61/105/35 58/106/35
f 65/107/36 62/108/36 64/109/36
f 58/110/38 65/111/38 64/112/38
f 68/113/37 71/114/37 70/115/37
f 68/116/30 69/117/30 67/118/30
f 70/119/32 73/120/32 72/121/32
f 66/122/38 73/123/38 69/124/38
f 80/125/39 79/126/39 74/127/39
f 84/128/40 77/129/40 78/130/40
f 82/131/2 75/132/2 76/133/2
f 85/134/3 78/130/3 79/126/3
f 83/135/41 76/133/41 77/129/41
f 81/136/42 74/127/42 75/132/42
f 36/59/30 35/137/30 45/60/30
f 52/62/31 51/138/31 55/63/31
f 47/65/31 35/139/31 36/66/31
f 49/68/32 47/140/32 46/69/32
f 34/71/33 45/141/33 49/72/33
f 39/74/34 43/142/34 41/75/34
f 44/77/5 40/143/5 38/78/5
f 44/80/4 43/144/4 39/81/4
f 40/83/3 39/145/3 37/84/3
f 38/86/1 37/146/1 41/87/1
f 42/89/2 41/147/2 43/90/2
f 52/92/35 50/148/35 53/93/35
f 54/95/36 55/149/36 57/96/36
f 50/98/33 56/150/33 57/99/33
f 63/101/37 59/151/37 60/102/37
f 60/104/35 59/152/35 61/105/35
f 65/107/36 63/153/36 62/108/36
f 58/110/38 61/154/38 65/111/38
f 68/113/37 67/155/37 71/114/37
f 68/116/30 66/156/30 69/117/30
f 70/119/32 71/157/32 73/120/32
f 66/122/38 72/158/38 73/123/38
f 80/125/39 85/134/39 79/126/39
f 84/128/40 83/135/40 77/129/40
f 82/131/2 81/136/2 75/132/2
f 85/134/3 84/128/3 78/130/3
f 83/135/41 82/131/41 76/133/41
f 81/136/42 80/125/42 74/127/42
