# Blender v2.80 (sub 60) OBJ File: 'RoadSign.blend'
# www.blender.org
mtllib RoadSign.mtl
o Cube
v -0.041764 1.935276 -0.326585
v -0.041764 2.126585 -0.135276
v -0.041764 2.126585 0.135276
v -0.041764 1.935276 0.326585
v -0.041764 1.664724 0.326585
v -0.041764 1.473415 0.135276
v -0.041764 1.473415 -0.135276
v -0.041764 1.664724 -0.326585
v -0.000000 -0.238240 -0.025000
v -0.017678 -0.238240 -0.017678
v -0.025000 -0.238240 -0.000000
v -0.017678 -0.238240 0.017678
v 0.000000 -0.238240 0.025000
v 0.017678 -0.238240 0.017678
v 0.025000 -0.238240 -0.000000
v 0.017678 -0.238240 -0.017678
v -0.000000 1.894695 -0.025000
v -0.017678 1.894695 -0.017678
v -0.025000 1.894695 -0.000000
v -0.017678 1.894695 0.017678
v 0.000000 1.894695 0.025000
v 0.017678 1.894695 0.017678
v 0.025000 1.894695 -0.000000
v 0.017678 1.894695 -0.017678
v 0.041764 1.935276 -0.326585
v 0.041764 2.126585 -0.135276
v 0.041764 2.126585 0.135276
v 0.041764 1.935276 0.326585
v 0.041764 1.664724 0.326585
v 0.041764 1.473415 0.135276
v 0.041764 1.473415 -0.135276
v 0.041764 1.664724 -0.326585
v -0.044756 1.898891 -0.238744
v -0.044756 1.898891 0.238744
v -0.044756 1.701109 0.238744
v -0.044756 1.701109 -0.238744
v 0.044756 1.898891 -0.238744
v 0.044756 1.898891 0.238744
v 0.044756 1.701109 0.238744
v 0.044756 1.701109 -0.238744
vt 0.000000 0.000000
vt 0.000000 0.000000
vt 0.000000 0.000000
vt 0.000000 0.000000
vt 0.000000 0.000000
vt 0.000000 0.000000
vt 0.000000 0.000000
vt 0.000000 0.000000
vt 0.000000 0.000000
vt 0.000000 0.000000
vt 0.000000 0.000000
vt 0.000000 0.000000
vt 0.000000 0.000000
vt 0.000000 0.000000
vt 0.000000 0.000000
vt 0.000000 0.000000
vt 0.000000 0.000000
vt 0.000000 0.000000
vt 0.000000 0.000000
vt 0.000000 0.000000
vt 0.000000 0.000000
vt 0.000000 0.000000
vt 0.000000 0.000000
vt 0.000000 0.000000
vt 0.000000 0.000000
vt 0.000000 0.000000
vt 0.000000 0.000000
vt 0.000000 0.000000
vt 0.000000 0.000000
vt 0.000000 0.000000
vt 0.000000 0.000000
vt 0.000000 0.000000
vt 0.000000 0.000000
vt 0.000000 0.000000
vt 0.000000 0.000000
vt 0.000000 0.000000
vt 0.000000 0.000000
vt 0.000000 0.000000
vt 0.000000 0.000000
vt 0.000000 0.000000
vn -0.3827 0.0000 -0.9239
vn 0.3827 0.0000 -0.9239
vn 0.9239 0.0000 0.3827
vn -0.3827 0.0000 0.9239
vn -0.9239 0.0000 -0.3827
vn 0.9239 0.0000 -0.3827
vn 0.3827 0.0000 0.9239
vn -0.9239 0.0000 0.3827
vn 0.0000 -0.7071 -0.7071
vn 0.0000 -0.7071 0.7071
vn 0.0000 0.7071 0.7071
vn 0.0000 0.7071 -0.7071
vn 0.0000 0.0000 -1.0000
vn 0.0000 -1.0000 0.0000
vn 0.0000 0.0000 1.0000
vn 0.0000 1.0000 0.0000
vn -1.0000 0.0000 0.0000
vn 1.0000 -0.0000 -0.0000
usemtl Pole
s off
f 18/1/1 9/2/1 10/3/1
f 17/4/2 16/5/2 9/2/2
f 23/6/3 14/7/3 15/8/3
f 21/9/4 12/10/4 13/11/4
f 19/12/5 10/3/5 11/13/5
f 24/14/6 15/8/6 16/5/6
f 22/15/7 13/11/7 14/7/7
f 20/16/8 11/13/8 12/10/8
f 18/1/1 17/4/1 9/2/1
f 17/4/2 24/14/2 16/5/2
f 23/6/3 22/15/3 14/7/3
f 21/9/4 20/16/4 12/10/4
f 19/12/5 18/1/5 10/3/5
f 24/14/6 23/6/6 15/8/6
f 22/15/7 21/9/7 13/11/7
f 20/16/8 19/12/8 11/13/8
usemtl Sign
f 32/17/9 7/18/9 8/19/9
f 30/20/10 5/21/10 6/22/10
f 28/23/11 3/24/11 4/25/11
f 26/26/12 1/27/12 2/28/12
f 25/29/13 8/19/13 1/27/13
f 31/30/14 6/22/14 7/18/14
f 29/31/15 4/25/15 5/21/15
f 27/32/16 2/28/16 3/24/16
f 7/18/17 5/21/17 3/24/17
f 29/31/18 31/30/18 25/29/18
f 32/17/9 31/30/9 7/18/9
f 30/20/10 29/31/10 5/21/10
f 28/23/11 27/32/11 3/24/11
f 26/26/12 25/29/12 1/27/12
f 25/29/13 32/17/13 8/19/13
f 31/30/14 30/20/14 6/22/14
f 29/31/15 28/23/15 4/25/15
f 27/32/16 26/26/16 2/28/16
f 3/24/17 2/28/17 7/18/17
f 2/28/17 1/27/17 7/18/17
f 1/27/17 8/19/17 7/18/17
f 7/18/17 6/22/17 5/21/17
f 5/21/17 4/25/17 3/24/17
f 25/29/18 26/26/18 27/32/18
f 27/32/18 28/23/18 29/31/18
f 29/31/18 30/20/18 31/30/18
f 31/30/18 32/17/18 25/29/18
f 25/29/18 27/32/18 29/31/18
usemtl Stop
f 33/33/17 35/34/17 34/35/17
f 39/36/18 37/37/18 38/38/18
f 33/33/17 36/39/17 35/34/17
f 39/36/18 40/40/18 37/37/18
